<?xml version="1.0" encoding="UTF-8"?>
<svg width="30px" height="29px" viewBox="0 0 30 29" version="1.1" xmlns="http://www.w3.org/2000/svg" xmlns:xlink="http://www.w3.org/1999/xlink">
    <!-- Generator: Sketch 50.2 (55047) - http://www.bohemiancoding.com/sketch -->
    <title>agreement</title>
    <desc>Created with Sketch.</desc>
    <defs></defs>
    <g id="Page-1" stroke="none" stroke-width="1" fill="none" fill-rule="evenodd">
        <g id="Desktop-HD-Copy-10" transform="translate(-1817.000000, -185.000000)" fill="#000000" fill-rule="nonzero">
            <g id="Group-13" transform="translate(1803.000000, 171.000000)">
                <g id="agreement" transform="translate(14.000000, 14.000000)">
                    <path d="M22.5,0 L0.5,0 C0.223875,0 0,0.220080508 0,0.491525424 L0,28.5084746 C0,28.7799195 0.223875,29 0.5,29 L22.5,29 C22.776125,29 23,28.7799195 23,28.5084746 L23,0.491525424 C23,0.220080508 22.776125,0 22.5,0 Z M22,28.0169492 L1,28.0169492 L1,0.983050847 L22,0.983050847 L22,28.0169492 Z" id="Shape"></path>
                    <path d="M13.5,5 L8.5,5 C8.223875,5 8,5.223875 8,5.5 C8,5.776125 8.223875,6 8.5,6 L13.5,6 C13.776125,6 14,5.776125 14,5.5 C14,5.223875 13.776125,5 13.5,5 Z" id="Shape"></path>
                    <path d="M7.5,11 L4.5,11 C4.223875,11 4,11.223875 4,11.5 C4,11.776125 4.223875,12 4.5,12 L7.5,12 C7.776125,12 8,11.776125 8,11.5 C8,11.223875 7.776125,11 7.5,11 Z" id="Shape"></path>
                    <path d="M20.5,11 L9.5,11 C9.223875,11 9,11.223875 9,11.5 C9,11.776125 9.223875,12 9.5,12 L20.5,12 C20.776125,12 21,11.776125 21,11.5 C21,11.223875 20.776125,11 20.5,11 Z" id="Shape"></path>
                    <path d="M20.5,13 L2.5,13 C2.223875,13 2,13.223875 2,13.5 C2,13.776125 2.223875,14 2.5,14 L20.5,14 C20.776125,14 21,13.776125 21,13.5 C21,13.223875 20.776125,13 20.5,13 Z" id="Shape"></path>
                    <path d="M15.5,15 L2.5,15 C2.223875,15 2,15.223875 2,15.5 C2,15.776125 2.223875,16 2.5,16 L15.5,16 C15.776125,16 16,15.776125 16,15.5 C16,15.223875 15.776125,15 15.5,15 Z" id="Shape"></path>
                    <path d="M20.5,15 L17.5,15 C17.223875,15 17,15.223875 17,15.5 C17,15.776125 17.223875,16 17.5,16 L20.5,16 C20.776125,16 21,15.776125 21,15.5 C21,15.223875 20.776125,15 20.5,15 Z" id="Shape"></path>
                    <path d="M20.5,17 L11.5,17 C11.223875,17 11,17.223875 11,17.5 C11,17.776125 11.223875,18 11.5,18 L20.5,18 C20.776125,18 21,17.776125 21,17.5 C21,17.223875 20.776125,17 20.5,17 Z" id="Shape"></path>
                    <path d="M9.5,17 L2.5,17 C2.223875,17 2,17.223875 2,17.5 C2,17.776125 2.223875,18 2.5,18 L9.5,18 C9.776125,18 10,17.776125 10,17.5 C10,17.223875 9.776125,17 9.5,17 Z" id="Shape"></path>
                    <path d="M20.5,19 L18.5,19 C18.223875,19 18,19.223875 18,19.5 C18,19.776125 18.223875,20 18.5,20 L20.5,20 C20.776125,20 21,19.776125 21,19.5 C21,19.223875 20.776125,19 20.5,19 Z" id="Shape"></path>
                    <path d="M4.57142857,19 L2.42857143,19 C2.19189286,19 2,19.223875 2,19.5 C2,19.776125 2.19189286,20 2.42857143,20 L4.57142857,20 C4.80810714,20 5,19.776125 5,19.5 C5,19.223875 4.80810714,19 4.57142857,19 Z" id="Shape"></path>
                    <path d="M16.5238095,19 L7.47619048,19 C7.21321429,19 7,19.223875 7,19.5 C7,19.776125 7.21321429,20 7.47619048,20 L16.5238095,20 C16.7867857,20 17,19.776125 17,19.5 C17,19.223875 16.7867857,19 16.5238095,19 Z" id="Shape"></path>
                    <path d="M19.5,25 L12.5,25 C12.223875,25 12,25.223875 12,25.5 C12,25.776125 12.223875,26 12.5,26 L19.5,26 C19.776125,26 20,25.776125 20,25.5 C20,25.223875 19.776125,25 19.5,25 Z" id="Shape"></path>
                    <path d="M16.5,3 L7.5,3 C7.223875,3 7,3.223875 7,3.5 C7,3.776125 7.223875,4 7.5,4 L16.5,4 C16.776125,4 17,3.776125 17,3.5 C17,3.223875 16.776125,3 16.5,3 Z" id="Shape"></path>
                    <path d="M29.5000018,4.9166754 L28.0000073,4.9166754 C28.0000073,3.85813151 27.1045731,3 26.0000146,3 C24.8954561,3 24.0000219,3.85813151 24.0000219,4.9166754 L24.0000219,22.166754 C23.9959594,23.5219633 24.5580823,24.8223677 25.5610162,25.7777705 L25.6465159,25.8597083 C25.8417652,26.0467639 26.158264,26.0467639 26.3535133,25.8597083 L26.439013,25.7777705 C27.4419468,24.8223677 28.0040698,23.5219633 28.0000073,22.166754 L28.0000073,5.8750131 L29.0000036,5.8750131 L29.0000036,10.1875328 L30,10.1875328 L30,5.39584425 C30,5.13122325 29.7761258,4.9166754 29.5000018,4.9166754 Z M26.0000146,24.8194328 C25.460954,24.2017841 25.1231428,23.4460151 25.0285181,22.6459229 L26.971511,22.6459229 C26.8768864,23.4460151 26.5390751,24.2017841 26.0000146,24.8194328 Z M27.0000109,21.6875852 L25.0000182,21.6875852 L25.0000182,5.8750131 L27.0000109,5.8750131 L27.0000109,21.6875852 Z M25.0000182,4.9166754 C25.0000182,4.38737351 25.4477041,3.9583377 26.0000146,3.9583377 C26.5523251,3.9583377 27.0000109,4.38737351 27.0000109,4.9166754 L25.0000182,4.9166754 Z" id="Shape"></path>
                    <path d="M20.5,8 L14.5,8 C14.223875,8 14,8.223875 14,8.5 C14,8.776125 14.223875,9 14.5,9 L20.5,9 C20.776125,9 21,8.776125 21,8.5 C21,8.223875 20.776125,8 20.5,8 Z" id="Shape"></path>
                    <path d="M13.5,21 L2.5,21 C2.223875,21 2,21.223875 2,21.5 C2,21.776125 2.223875,22 2.5,22 L13.5,22 C13.776125,22 14,21.776125 14,21.5 C14,21.223875 13.776125,21 13.5,21 Z" id="Shape"></path>
                </g>
            </g>
        </g>
    </g>
</svg>