<?xml version="1.0" encoding="UTF-8"?>
<svg width="80px" height="67px" viewBox="0 0 80 67" version="1.1" xmlns="http://www.w3.org/2000/svg" xmlns:xlink="http://www.w3.org/1999/xlink">
    <!-- Generator: Sketch 50.2 (55047) - http://www.bohemiancoding.com/sketch -->
    <title>broom</title>
    <desc>Created with Sketch.</desc>
    <defs></defs>
    <g id="Page-1" stroke="none" stroke-width="1" fill="none" fill-rule="evenodd">
        <g id="Desktop-HD-Copy-8" transform="translate(-1395.000000, -220.000000)" fill-rule="nonzero">
            <g id="broom" transform="translate(1395.000000, 220.000000)">
                <path d="M64.2001586,29.4799999 L58.8002379,29.4799999 L58.8002379,1.34 C58.8002379,0.599984998 58.1957842,0 57.4502577,0 L46.6504163,0 C45.9048897,0 45.3004361,0.599984998 45.3004361,1.34 L45.3004361,29.4799999 L39.9005154,29.4799999 C33.9386654,29.4866999 29.1074239,34.2822249 29.100674,40.1999999 C29.100674,40.9400149 29.7051276,41.5399999 30.4506541,41.5399999 L31.1175444,41.5399999 L21.1060914,65.1400798 C20.8168581,65.8221398 21.1393346,66.6078823 21.8264745,66.8949773 C21.9923533,66.9643223 22.1707195,66.9999998 22.3507731,66.9999998 L65.5501388,66.9999998 C66.1886794,67.0003348 66.7401463,66.5562923 66.8717694,65.9360398 L72.0448934,41.5399999 L73.6500198,41.5399999 C74.3955464,41.5399999 75,40.9400149 75,40.1999999 C74.9932501,34.2822249 70.1620085,29.4866999 64.2001586,29.4799999 Z M48.0003965,2.67999999 L56.1002775,2.67999999 L56.1002775,29.4799999 L48.0003965,29.4799999 L48.0003965,2.67999999 Z M64.4539549,64.3199998 L59.3240302,64.3199998 L62.7813294,54.0234398 C63.016901,53.3204423 62.6336753,52.5608299 61.925442,52.3269999 C61.2172086,52.0931699 60.4519386,52.4735624 60.2163671,53.1765598 L56.478272,64.3199998 L52.5727793,64.3199998 L56.0300785,54.0234398 C56.2656501,53.3204423 55.8824245,52.5608299 55.1741911,52.3269999 C54.4659578,52.0931699 53.7006878,52.4735624 53.4651162,53.1765598 L49.7283711,64.3199998 L45.8228784,64.3199998 L49.2801777,54.0234398 C49.5157492,53.3204423 49.1325236,52.5608299 48.4242902,52.3269999 C47.7160569,52.0931699 46.9507869,52.4735624 46.7152153,53.1765598 L42.9784702,64.3199998 L39.0729775,64.3199998 L42.5302768,54.0234398 C42.7658483,53.3204423 42.3826227,52.5608299 41.6743893,52.3269999 C40.966156,52.0931699 40.200886,52.4735624 39.9653144,53.1765598 L36.2285693,64.3199998 L32.3230767,64.3199998 L35.7803759,54.0234398 C36.0159474,53.3204423 35.6327218,52.5608299 34.9244885,52.3269999 C34.2162551,52.0931699 33.4509851,52.4735624 33.2154136,53.1765598 L29.4786684,64.3199998 L24.3838432,64.3199998 L34.0470013,41.5399999 L69.281484,41.5399999 L64.4539549,64.3199998 Z M31.9126827,38.8599999 C32.5767042,34.9940999 35.9496297,32.1648574 39.9005154,32.1599999 L64.2001586,32.1599999 C68.1510443,32.1648574 71.5239698,34.9940999 72.1879913,38.8599999 L31.9126827,38.8599999 Z" id="Shape" fill="#000000"></path>
                <path d="M17.6428571,65 L1.35714286,65 C0.607660714,65 0,65.44775 0,66 C0,66.55225 0.607660714,67 1.35714286,67 L17.6428571,67 C18.3923393,67 19,66.55225 19,66 C19,65.44775 18.3923393,65 17.6428571,65 Z" id="Shape" fill="#50E3C2"></path>
                <path d="M16.7,56 L6.3,56 C5.582075,56 5,56.44775 5,57 C5,57.55225 5.582075,58 6.3,58 L16.7,58 C17.417925,58 18,57.55225 18,57 C18,56.44775 17.417925,56 16.7,56 Z" id="Shape" fill="#50E3C2"></path>
                <path d="M78.7,20.2 C76.5460625,20.2 74.8,18.4539375 74.8,16.3 C74.8,15.582075 74.217925,15 73.5,15 C72.782075,15 72.2,15.582075 72.2,16.3 C72.2,18.4539375 70.4539375,20.2 68.3,20.2 C67.582075,20.2 67,20.782075 67,21.5 C67,22.217925 67.582075,22.8 68.3,22.8 C70.4539375,22.8 72.2,24.5460625 72.2,26.7 C72.2,27.417925 72.782075,28 73.5,28 C74.217925,28 74.8,27.417925 74.8,26.7 C74.8,24.5460625 76.5460625,22.8 78.7,22.8 C79.417925,22.8 80,22.217925 80,21.5 C80,20.782075 79.417925,20.2 78.7,20.2 Z M73.5,22.8 C73.13015,22.3074625 72.6925375,21.86985 72.2,21.5 C72.6925375,21.13015 73.13015,20.6925375 73.5,20.2 C73.86985,20.6925375 74.3074625,21.13015 74.8,21.5 C74.3074625,21.86985 73.86985,22.3074625 73.5,22.8 Z" id="Shape" fill="#50E3C2"></path>
            </g>
        </g>
    </g>
</svg>