<?xml version="1.0" encoding="UTF-8"?>
<svg width="22px" height="22px" viewBox="0 0 22 22" version="1.1" xmlns="http://www.w3.org/2000/svg" xmlns:xlink="http://www.w3.org/1999/xlink">
    <!-- Generator: Sketch 50.2 (55047) - http://www.bohemiancoding.com/sketch -->
    <title>information-button copy</title>
    <desc>Created with Sketch.</desc>
    <defs></defs>
    <g id="Page-1" stroke="none" stroke-width="1" fill="none" fill-rule="evenodd">
        <g id="Desktop-HD-Copy-2" transform="translate(-809.000000, -136.000000)" fill="#F8CA09" fill-rule="nonzero">
            <g id="information-button-copy" transform="translate(809.000000, 136.000000)">
                <path d="M11,0 C4.92525368,0 0,4.92525368 0,11 C0,17.0747463 4.92525368,22 11,22 C17.0747463,22 22,17.0747463 22,11 C22,4.92525368 17.0747463,0 11,0 Z M12.3749784,16.5 C12.3749784,17.2590026 11.7589593,17.8749784 11,17.8749784 C10.2410407,17.8749784 9.62502163,17.2589593 9.62502163,16.5 L9.62502163,9.62497837 C9.62502163,8.86597577 10.2410407,8.25 11,8.25 C11.7589593,8.25 12.3749784,8.86601904 12.3749784,9.62497837 L12.3749784,16.5 Z M11,6.89699913 C10.2409974,6.89699913 9.62502163,6.2809801 9.62502163,5.52202077 C9.62502163,4.76306143 10.2410407,4.1470424 11,4.1470424 C11.7589593,4.1470424 12.3749784,4.76306143 12.3749784,5.52202077 C12.3749784,6.2809801 11.7590026,6.89699913 11,6.89699913 Z" id="Shape"></path>
            </g>
        </g>
    </g>
</svg>