<?xml version="1.0" encoding="UTF-8"?>
<svg width="71px" height="71px" viewBox="0 0 71 71" version="1.1" xmlns="http://www.w3.org/2000/svg" xmlns:xlink="http://www.w3.org/1999/xlink">
    <!-- Generator: Sketch 50.2 (55047) - http://www.bohemiancoding.com/sketch -->
    <title>flaticon1527677386-svg copy</title>
    <desc>Created with Sketch.</desc>
    <defs></defs>
    <g id="Page-1" stroke="none" stroke-width="1" fill="none" fill-rule="evenodd">
        <g id="Desktop-HD-Copy-8" transform="translate(-114.000000, -217.000000)" fill-rule="nonzero">
            <g id="flaticon1527677386-svg-copy" transform="translate(114.000000, 217.000000)">
                <path d="M67.45,22.4832871 L57.9832871,22.4832871 C56.3898086,22.4832871 55.0943359,23.4488594 54.6240996,24.85 L52.0665742,24.85 L52.0665742,21.3 L61.5332871,21.3 C64.1365742,21.3 66.2665742,19.17 66.2665742,16.5667129 L66.2665742,4.73328711 C66.2667129,2.13 64.1367129,0 61.5332871,0 L4.73328711,0 C2.13,0 0,2.13 0,4.73328711 L0,66.2665742 C0,68.87 2.13,71 4.73328711,71 L61.5332871,71 C64.1365742,71 66.2665742,68.87 66.2665742,66.2667129 C66.2665742,63.6634258 64.1365742,61.5334258 61.5332871,61.5334258 L48.4537559,61.5334258 C49.5072461,60.8683555 50.4737891,60.0791738 51.3327227,59.1854336 C51.5547363,59.1836309 51.7685684,59.1667129 51.9482871,59.1667129 C52.185,59.1667129 52.54,59.1667129 52.7765742,59.1667129 C55.0248613,59.1667129 57.0365742,58.93 58.8115742,56.3267129 C60.5865742,53.96 60.3498613,52.185 59.8765742,51.12 C59.1866816,49.7402148 57.6737715,48.8552109 55.6156035,48.5971426 C55.6157422,48.5702402 55.6165742,48.5434766 55.6165742,48.5165742 C55.6165742,47.8065742 55.1432871,47.3332871 54.4332871,47.3332871 L26.0332871,47.3332871 C25.3232871,47.3332871 24.85,47.8065742 24.85,48.5165742 C24.85,54.0092285 27.7030352,58.8126836 32.012957,61.5332871 L23.6667129,61.5332871 C22.365,61.5332871 21.3,60.4682871 21.3,59.1665742 L21.3,23.6665742 C21.3,22.3648613 22.365,21.2998613 23.6667129,21.2998613 L28.4,21.2998613 L28.4,27.2165742 C28.4,29.2282871 29.9382871,30.7665742 31.95,30.7665742 L35.5,30.7665742 L35.5,31.9498613 C35.5,32.6598613 35.9732871,33.1331484 36.6832871,33.1331484 C37.3932871,33.1331484 37.8665742,32.6598613 37.8665742,31.9498613 L37.8665742,30.7665742 L42.6,30.7665742 L42.6,31.9498613 C42.6,32.6598613 43.0732871,33.1331484 43.7832871,33.1331484 C44.4932871,33.1331484 44.9665742,32.6598613 44.9665742,31.9498613 L44.9665742,30.7665742 L48.5165742,30.7665742 C50.5282871,30.7665742 52.0665742,29.2282871 52.0665742,27.2165742 L54.6240996,27.2165742 C55.0943359,28.6175762 56.3899473,29.5832871 57.9832871,29.5832871 L67.45,29.5832871 C69.4617129,29.5832871 71,28.045 71,26.0332871 C71,24.0215742 69.4617129,22.4832871 67.45,22.4832871 Z M57.865,52.185 C58.3382871,53.0132871 57.51,54.1967129 57.0367129,54.9067129 C55.8728398,56.4197617 54.822123,56.7872422 53.2115879,56.7988906 C54.3313633,55.0433047 55.1043203,53.0432402 55.4353301,50.8939648 C56.7045938,51.1305391 57.5151309,51.4852617 57.865,52.185 Z M27.2167129,49.7 L53.1196484,49.7 C52.8635215,52.4938223 51.8036523,55.0548145 49.9367129,57.155 C49.8815215,57.2101914 49.8403359,57.2721777 49.8078867,57.3387402 C47.4386777,59.915957 44.0570254,61.5332871 40.2334258,61.5332871 C33.37,61.5332871 27.8082871,56.3267129 27.2167129,49.7 Z M18.9334258,23.6665742 L18.9334258,59.1665742 C18.9334258,61.7698613 21.0634258,63.8998613 23.6667129,63.8998613 L61.5334258,63.8998613 C62.8351387,63.8998613 63.9001387,64.9648613 63.9001387,66.2665742 C63.9001387,67.5682871 62.8351387,68.6332871 61.5334258,68.6332871 L4.73342578,68.6332871 C3.43171289,68.6332871 2.36671289,67.5682871 2.36671289,66.2665742 L2.36671289,63.9 L8.28342578,63.9 C8.99342578,63.9 9.46671289,63.4267129 9.46671289,62.7167129 C9.46671289,62.0067129 8.99342578,61.5334258 8.28342578,61.5334258 L2.36671289,61.5334258 L2.36671289,59.1667129 L8.28342578,59.1667129 C8.99342578,59.1667129 9.46671289,58.6934258 9.46671289,57.9834258 C9.46671289,57.2734258 8.99342578,56.8001387 8.28342578,56.8001387 L2.36671289,56.8001387 L2.36671289,54.4334258 L8.28342578,54.4334258 C8.99342578,54.4334258 9.46671289,53.9601387 9.46671289,53.2501387 C9.46671289,52.5401387 8.99342578,52.0668516 8.28342578,52.0668516 L2.36671289,52.0668516 L2.36671289,49.7 L8.28342578,49.7 C8.99342578,49.7 9.46671289,49.2267129 9.46671289,48.5167129 C9.46671289,47.8067129 8.99342578,47.3334258 8.28342578,47.3334258 L2.36671289,47.3334258 L2.36671289,4.73342578 C2.36671289,3.43171289 3.43171289,2.36671289 4.73342578,2.36671289 L61.5334258,2.36671289 C62.8351387,2.36671289 63.9001387,3.43171289 63.9001387,4.73342578 L63.9001387,16.5667129 C63.9001387,17.8684258 62.8351387,18.9334258 61.5334258,18.9334258 L52.0667129,18.9334258 L28.4,18.9334258 L23.6667129,18.9334258 C21.0634258,18.9332871 18.9334258,21.0632871 18.9334258,23.6665742 Z M49.7,27.2167129 C49.7,27.9267129 49.2267129,28.4 48.5167129,28.4 L43.7834258,28.4 L36.6834258,28.4 L31.95,28.4 C31.24,28.4 30.7667129,27.9267129 30.7667129,27.2167129 L30.7667129,21.3 L49.7,21.3 L49.7,27.2167129 Z M67.45,27.2167129 L57.9832871,27.2167129 C57.2732871,27.2167129 56.8,26.7434258 56.8,26.0334258 C56.8,25.3234258 57.2732871,24.8501387 57.9832871,24.8501387 L67.45,24.8501387 C68.16,24.8501387 68.6332871,25.3234258 68.6332871,26.0334258 C68.6332871,26.7434258 68.16,27.2167129 67.45,27.2167129 Z" id="Shape" fill="#000000"></path>
                <path d="M39,37 C39,36.3999766 38.4000703,36 37.5000879,36 C36.6001055,36 36,36.3999766 36,37 L36,38 C36,38.6000234 36.5999297,39 37.4999121,39 C38.3998945,39 38.9998242,38.6000234 38.9998242,38 L38.9998242,37 L39,37 Z" id="Shape" fill="#000000"></path>
                <path d="M37.5,42 C36.5999648,42 36,42.3999766 36,43 L36,44 C36,44.6000234 36.5999648,45 37.5,45 C38.4000351,45 39,44.6000234 39,44 L39,43 C39.0001757,42.3999766 38.4000351,42 37.5,42 Z" id="Shape" fill="#000000"></path>
                <path d="M46,37 C46,36.3999766 45.4000352,36 44.5,36 C43.5999648,36 43,36.3999766 43,37 L43,38 C43,38.6000234 43.5999648,39 44.5,39 C45.4000352,39 46,38.6000234 46,38 L46,37 Z" id="Shape" fill="#000000"></path>
                <path d="M44.5,42 C43.5999648,42 43,42.3999766 43,43 L43,44 C43,44.6000234 43.5999648,45 44.5,45 C45.4000351,45 46,44.6000234 46,44 L46,43 C46.0001757,42.3999766 45.4000351,42 44.5,42 Z" id="Shape" fill="#000000"></path>
                <path d="M11.5,5 C7.86007922,5 5,7.85992688 5,11.5 C5,15.1399208 7.85992688,18 11.5,18 C15.1399208,18 18,15.1400731 18,11.5 C18,7.86007922 15.1399208,5 11.5,5 Z M11.5,15.3999695 C9.28996648,15.3999695 7.60003047,13.7100335 7.60003047,11.5 C7.60003047,9.28996648 9.28996648,7.60003047 11.5,7.60003047 C13.7100335,7.60003047 15.3999695,9.28996648 15.3999695,11.5 C15.3999695,13.7100335 13.7100335,15.3999695 11.5,15.3999695 Z" id="Shape" fill="#50E3C2"></path>
                <path d="M25.5,5 C21.8600792,5 19,7.85992688 19,11.5 C19,15.1399208 21.8599269,18 25.5,18 C29.1400731,18 32,15.1400731 32,11.5 C32,7.86007922 29.1399208,5 25.5,5 Z M25.5,15.3999695 C23.2899665,15.3999695 21.6000305,13.7100335 21.6000305,11.5 C21.6000305,9.28996648 23.2899665,7.60003047 25.5,7.60003047 C27.7100335,7.60003047 29.3999695,9.28996648 29.3999695,11.5 C29.3999695,13.7100335 27.7100335,15.3999695 25.5,15.3999695 Z" id="Shape" fill="#50E3C2"></path>
            </g>
        </g>
    </g>
</svg>