<?xml version="1.0" encoding="UTF-8"?>
<svg width="46px" height="42px" viewBox="0 0 46 42" version="1.1" xmlns="http://www.w3.org/2000/svg" xmlns:xlink="http://www.w3.org/1999/xlink">
    <!-- Generator: Sketch 50.2 (55047) - http://www.bohemiancoding.com/sketch -->
    <title>flaticon1527515647-svg</title>
    <desc>Created with Sketch.</desc>
    <defs></defs>
    <g id="Page-1" stroke="none" stroke-width="1" fill="none" fill-rule="evenodd">
        <g id="Desktop-HD-Copy-2" transform="translate(-1790.000000, -21.000000)" fill-rule="nonzero">
            <g id="flaticon1527515647-svg" transform="translate(1790.000000, 21.000000)">
                <g id="Group" transform="translate(0.000000, 4.000000)" fill="#FFFFFF">
                    <path d="M6.67237021,37.9703653 C6.57702128,37.9703653 6.38641277,37.9703653 6.29106383,37.8754098 C5.90975745,37.6855878 5.71914894,37.4008103 5.71914894,37.0210773 L5.71914894,30.3762389 L7.62550213,30.3762389 L7.62550213,34.7428571 L11.7242553,30.6610164 C11.9148638,30.4711944 12.1055617,30.3762389 12.3915191,30.3762389 L39.0809106,30.3762389 C39.6528255,30.3762389 40.0341319,29.9965059 40.0341319,29.4269508 L40.0341319,11.3911007 L41.9404851,11.3911007 L41.9404851,29.4270398 C41.9404851,31.0407494 40.7013064,32.274815 39.0809106,32.274815 L12.7728255,32.274815 L7.33963404,37.6855878 C7.14893617,37.8754098 6.95832766,37.9703653 6.67237021,37.9703653 Z" id="Shape"></path>
                    <path d="M3.81279574,32.274815 L2.85957447,32.274815 C1.23917872,32.274815 0,31.0407494 0,29.4270398 L0,2.84777518 C0,1.23406557 1.23917872,0 2.85957447,0 L30.5020979,0 L30.5020979,1.89848712 L2.85957447,1.89848712 C2.28765957,1.89848712 1.90635319,2.27822014 1.90635319,2.84777518 L1.90635319,29.4270398 C1.90635319,29.9965948 2.28765957,30.3763279 2.85957447,30.3763279 L3.81279574,30.3763279 L3.81279574,32.274815 Z" id="Shape"></path>
                </g>
                <circle id="Oval" fill="#FD7130" cx="39.5" cy="6.5" r="6.5"></circle>
                <rect id="Rectangle-path" fill="#FFFFFF" x="38" y="4" width="2" height="6"></rect>
                <g id="Group" transform="translate(16.000000, 19.000000)" fill="#FFFFFF">
                    <rect id="Rectangle-path" x="0" y="0" width="2" height="2"></rect>
                    <rect id="Rectangle-path" x="4" y="0" width="2" height="2"></rect>
                    <rect id="Rectangle-path" x="8" y="0" width="2" height="2"></rect>
                </g>
            </g>
        </g>
    </g>
</svg>