<?xml version="1.0" encoding="UTF-8"?>
<svg width="71px" height="73px" viewBox="0 0 71 73" version="1.1" xmlns="http://www.w3.org/2000/svg" xmlns:xlink="http://www.w3.org/1999/xlink">
    <!-- Generator: Sketch 50.2 (55047) - http://www.bohemiancoding.com/sketch -->
    <title>flaticon1527677256-svg copy</title>
    <desc>Created with Sketch.</desc>
    <defs></defs>
    <g id="Page-1" stroke="none" stroke-width="1" fill="none" fill-rule="evenodd">
        <g id="Desktop-HD-Copy-8" transform="translate(-766.000000, -216.000000)" fill-rule="nonzero">
            <g id="flaticon1527677256-svg-copy" transform="translate(766.000000, 216.000000)">
                <path d="M71,51.085102 L71,24.1644898 C71,20.7826531 68.227148,18.0265306 64.8247836,18.0265306 L57.3905425,18.0265306 L57.3905425,3.94795918 C57.3905425,1.77285714 55.6069242,0 53.4186194,0 L17.5813806,0 C15.3930758,0 13.6094575,1.77285714 13.6094575,3.94795918 L13.6094575,18.0265306 L6.17521638,18.0265306 C2.77285202,18.0265306 0,20.7826531 0,24.1644898 L0,51.085102 C0,54.4669388 2.77285202,57.2230612 6.17521638,57.2230612 L13.6094575,57.2230612 L13.6094575,69.0520408 C13.6094575,71.2271429 15.3930758,73 17.5813806,73 L53.4186194,73 C55.6069242,73 57.3905425,71.2271429 57.3905425,69.0520408 L57.3905425,57.2081633 L64.8247836,57.2081633 C68.2421364,57.2081633 71,54.4669388 71,51.085102 Z M16.5771585,3.94795918 C16.5771585,3.39673469 17.0268102,2.94979592 17.5813806,2.94979592 L53.4186194,2.94979592 C53.9731898,2.94979592 54.4228415,3.39673469 54.4228415,3.94795918 L54.4228415,18.0265306 L16.5771585,18.0265306 L16.5771585,3.94795918 Z M54.4378299,69.0520408 C54.4378299,69.6032653 53.9881782,70.0502041 53.4336078,70.0502041 L17.5813806,70.0502041 C17.0268102,70.0502041 16.5771585,69.6032653 16.5771585,69.0520408 L16.5771585,39.1071429 L54.4228415,39.1071429 L54.4228415,69.0520408 L54.4378299,69.0520408 Z M68.0322989,51.085102 C68.0322989,52.8430612 66.5934136,54.2732653 64.8247836,54.2732653 L57.3905425,54.2732653 L57.3905425,37.6322449 C57.3905425,36.8128571 56.7310534,36.1573469 55.906692,36.1573469 L15.093308,36.1573469 C14.2689466,36.1573469 13.6094575,36.8128571 13.6094575,37.6322449 L13.6094575,54.2732653 L6.17521638,54.2732653 C4.40658645,54.2732653 2.96770108,52.8430612 2.96770108,51.085102 L2.96770108,24.1644898 C2.96770108,22.4065306 4.40658645,20.9763265 6.17521638,20.9763265 L64.8247836,20.9763265 C66.5934136,20.9763265 68.0322989,22.4065306 68.0322989,24.1644898 L68.0322989,51.085102 Z" id="Shape" fill="#2C2F33"></path>
                <path d="M10.5,27 C10.1060606,27 9.72727273,27.1666667 9.43939394,27.4393939 C9.16666667,27.7272727 9,28.1060606 9,28.5 C9,28.8939394 9.16666667,29.2727273 9.43939394,29.5606061 C9.72727273,29.8333333 10.1060606,30 10.5,30 C10.8939394,30 11.2727273,29.8333333 11.5606061,29.5606061 C11.8333333,29.2878788 12,28.8939394 12,28.5 C12,28.1060606 11.8333333,27.7272727 11.5606061,27.4393939 C11.2878788,27.1666667 10.8939394,27 10.5,27 Z" id="Shape" fill="#2C2F33"></path>
                <path d="M24.4840725,56 L45.5159275,56 C46.3404122,56 47,55.3333333 47,54.5 C47,53.6666667 46.3404122,53 45.5159275,53 L24.4840725,53 C23.6595878,53 23,53.6666667 23,54.5 C23,55.3333333 23.6595878,56 24.4840725,56 Z" id="Shape" fill="#50E3C2"></path>
                <path d="M24.4840725,65 L45.5159275,65 C46.3404122,65 47,64.3333333 47,63.5 C47,62.6666667 46.3404122,62 45.5159275,62 L24.4840725,62 C23.6595878,62 23,62.6666667 23,63.5 C23,64.3333333 23.6595878,65 24.4840725,65 Z" id="Shape" fill="#50E3C2"></path>
                <path d="M24.4840725,48 L45.5159275,48 C46.3404122,48 47,47.3333333 47,46.5 C47,45.6666667 46.3404122,45 45.5159275,45 L24.4840725,45 C23.6595878,45 23,45.6666667 23,46.5 C23,47.3333333 23.6595878,48 24.4840725,48 Z" id="Shape" fill="#50E3C2"></path>
            </g>
        </g>
    </g>
</svg>