<?xml version="1.0" encoding="UTF-8"?>
<svg width="37px" height="39px" viewBox="0 0 37 39" version="1.1" xmlns="http://www.w3.org/2000/svg" xmlns:xlink="http://www.w3.org/1999/xlink">
    <!-- Generator: Sketch 50.2 (55047) - http://www.bohemiancoding.com/sketch -->
    <title>flaticon1527677722-svg</title>
    <desc>Created with Sketch.</desc>
    <defs></defs>
    <g id="Page-1" stroke="none" stroke-width="1" fill="none" fill-rule="evenodd">
        <g id="Desktop-HD-Copy-2" transform="translate(-993.000000, -266.000000)" fill="#9B9B9B" fill-rule="nonzero">
            <g id="flaticon1527677722-svg" transform="translate(993.000000, 266.000000)">
                <path d="M36.4374393,35.5228206 L27.3163063,25.8690096 C29.6615099,23.0319489 30.9464607,19.462346 30.9464607,15.7462346 C30.9464607,7.06389776 24.005035,0 15.4732304,0 C6.94142569,0 0,7.06389776 0,15.7462346 C0,24.4285714 6.94142569,31.4924692 15.4732304,31.4924692 C18.676189,31.4924692 21.7284519,30.5093565 24.3380459,28.6430853 L33.5284719,38.3701506 C33.9126117,38.7761296 34.429283,39 34.9829556,39 C35.5070272,39 36.0041888,38.7966682 36.3816011,38.426974 C37.1835181,37.6417161 37.2090825,36.339571 36.4374393,35.5228206 Z M15.4732304,4.10771337 C21.7795809,4.10771337 26.9099658,9.32861707 26.9099658,15.7462346 C26.9099658,22.1638521 21.7795809,27.3847558 15.4732304,27.3847558 C9.16687986,27.3847558 4.03649488,22.1638521 4.03649488,15.7462346 C4.03649488,9.32861707 9.16687986,4.10771337 15.4732304,4.10771337 Z" id="Shape"></path>
            </g>
        </g>
    </g>
</svg>