<?xml version="1.0" encoding="UTF-8"?>
<svg width="14px" height="13px" viewBox="0 0 14 13" version="1.1" xmlns="http://www.w3.org/2000/svg" xmlns:xlink="http://www.w3.org/1999/xlink">
    <!-- Generator: Sketch 50.2 (55047) - http://www.bohemiancoding.com/sketch -->
    <title>flaticon1527516154-svg copy</title>
    <desc>Created with Sketch.</desc>
    <defs></defs>
    <g id="Page-1" stroke="none" stroke-width="1" fill="none" fill-rule="evenodd">
        <g id="Customer-profile" transform="translate(-1238.000000, -510.000000)" fill="#FFFFFF" fill-rule="nonzero">
            <g id="flaticon1527516154-svg-copy" transform="translate(1238.000000, 510.000000)">
                <path d="M13.8789088,12.3370288 L10.475937,9.17782705 C11.388778,8.20354767 11.9414504,6.93237251 11.9414504,5.54301552 C11.9414504,2.48470067 9.2619206,0 5.97072522,0 C2.67642493,0 0,2.48758315 0,5.54301552 C0,8.59844789 2.67952983,11.086031 5.97072522,11.086031 C7.46728765,11.086031 8.83654912,10.572949 9.88600577,9.72549889 L13.2889776,12.8847007 C13.369705,12.9596452 13.4783766,13 13.5839432,13 C13.6895099,13 13.7981814,12.9625277 13.8789088,12.8847007 C14.0403637,12.7348115 14.0403637,12.486918 13.8789088,12.3370288 Z M0.835218452,5.54301552 C0.835218452,2.91419069 3.13905522,0.77827051 5.96762031,0.77827051 C8.79929031,0.77827051 11.1000222,2.91707317 11.1000222,5.54301552 C11.1000222,8.16895787 8.79929031,10.310643 5.96762031,10.310643 C3.13905522,10.310643 0.835218452,8.17184035 0.835218452,5.54301552 Z" id="Shape"></path>
            </g>
        </g>
    </g>
</svg>