<?xml version="1.0" encoding="iso-8859-1"?>
<!-- Generator: Adobe Illustrator 19.0.0, SVG Export Plug-In . SVG Version: 6.00 Build 0)  -->
<svg version="1.1" id="Layer_1" xmlns="http://www.w3.org/2000/svg" xmlns:xlink="http://www.w3.org/1999/xlink" x="0px" y="0px"
	 viewBox="0 0 497.616 497.616" style="enable-background:new 0 0 497.616 497.616;" xml:space="preserve">
<g>
	<g>
		<g>
			<rect x="344.808" y="177.616" width="16" height="16"/>
			<rect x="384.808" y="105.616" width="16" height="40"/>
			<rect x="384.808" y="161.616" width="16" height="16"/>
			<rect x="280.808" y="121.616" width="16" height="16"/>
			<polygon points="200.808,51.232 200.808,121.616 200.808,153.616 216.808,153.616 216.808,121.616 216.808,40.568 
				248.808,19.232 280.808,40.568 280.808,105.616 296.808,105.616 296.808,51.232 316.368,64.272 325.248,50.96 248.808,0 
				172.368,50.96 181.248,64.272 			"/>
			<rect x="200.808" y="169.616" width="16" height="16"/>
			<rect x="240.808" y="41.616" width="16" height="80"/>
			<rect x="240.808" y="137.616" width="16" height="16"/>
			<rect x="104.808" y="145.616" width="16" height="32"/>
			<rect x="264.808" y="449.616" width="16" height="16"/>
			<rect x="232.808" y="449.616" width="16" height="16"/>
			<rect x="200.808" y="449.616" width="16" height="16"/>
			<path d="M454.72,209.616h-13.912v-94.384l19.56,13.04l8.872-13.312L392.808,64l-76.44,50.96l8.872,13.312l19.568-13.04v46.384h16
				v-57.048l32-21.336l32,21.336v105.048h-72h-192v-54.384l19.56,13.04l8.872-13.312L112.808,104l-76.44,50.96l8.872,13.312
				l19.568-13.04v38.384h16v-49.048l32-21.336l32,21.336v65.048H42.904l-36.928,120h34.832v168h416v-168h34.832L454.72,209.616z
				 M27.64,313.616l27.072-88h239.264l-27.08,88H27.64z M296.808,481.616h-240v-152h221.904l18.096-58.808V481.616z
				 M440.808,481.616h-128v-210.8l18.096,58.8h109.904V481.616z M342.712,313.616l-27.072-88h37.168h90.096l27.08,88H342.712z"/>
		</g>
	</g>
</g>
<g>
</g>
<g>
</g>
<g>
</g>
<g>
</g>
<g>
</g>
<g>
</g>
<g>
</g>
<g>
</g>
<g>
</g>
<g>
</g>
<g>
</g>
<g>
</g>
<g>
</g>
<g>
</g>
<g>
</g>
</svg>
