<?xml version="1.0" encoding="UTF-8"?>
<svg width="32px" height="31px" viewBox="0 0 32 31" version="1.1" xmlns="http://www.w3.org/2000/svg" xmlns:xlink="http://www.w3.org/1999/xlink">
    <!-- Generator: Sketch 50.2 (55047) - http://www.bohemiancoding.com/sketch -->
    <title>check-square</title>
    <desc>Created with Sketch.</desc>
    <defs></defs>
    <g id="Page-1" stroke="none" stroke-width="1" fill="none" fill-rule="evenodd">
        <g id="Desktop-HD-Copy-9" transform="translate(-345.000000, -173.000000)" fill="#000000" fill-rule="nonzero">
            <g id="check-square" transform="translate(345.000000, 173.000000)">
                <path d="M26.238686,9.69338641 C25.8183138,9.69338641 25.4773721,10.0343298 25.4773721,10.454704 L25.4773721,29.4773649 L1.52262794,29.4773649 L1.52262794,5.5226351 L20.148428,5.5226351 C20.5689271,5.5226351 20.909742,5.18169172 20.909742,4.76131755 C20.909742,4.34094338 20.5689271,4 20.148428,4 L0.761313972,4 C0.340941774,4 0,4.34094338 0,4.76131755 L0,30.2386825 C0,30.6590566 0.340941774,31 0.761313972,31 L26.238686,31 C26.6590582,31 27,30.6590566 27,30.2386825 L27,10.454704 C27,10.0343298 26.6590582,9.69338641 26.238686,9.69338641 Z" id="Shape"></path>
                <path d="M31.7748672,0.220995622 C31.4748181,-0.0735394852 30.9883109,-0.0737909023 30.6882619,0.220995622 L10.3563849,20.1791118 L5.31164209,15.2270753 C5.01159303,14.9324145 4.52495778,14.9324145 4.22503679,15.2270753 C3.92498774,15.5216104 3.92498774,15.9991772 4.22503679,16.2935866 L9.81314624,21.7790044 C9.96310674,21.9263348 10.1598098,22 10.3565129,22 C10.553216,22 10.749791,21.9263348 10.8998796,21.7790044 L31.7748672,1.28763257 C32.0750443,0.993097468 32.0750443,0.515530728 31.7748672,0.220995622 Z" id="Shape"></path>
            </g>
        </g>
    </g>
</svg>