<?xml version="1.0" encoding="UTF-8"?>
<svg width="29px" height="29px" viewBox="0 0 29 29" version="1.1" xmlns="http://www.w3.org/2000/svg" xmlns:xlink="http://www.w3.org/1999/xlink">
    <!-- Generator: Sketch 50.2 (55047) - http://www.bohemiancoding.com/sketch -->
    <title>118773 copy 2</title>
    <desc>Created with Sketch.</desc>
    <defs></defs>
    <g id="Page-1" stroke="none" stroke-width="1" fill="none" fill-rule="evenodd">
        <g id="Customer-Details" transform="translate(-956.000000, -234.000000)" fill="#000000" fill-rule="nonzero">
            <g id="118773-copy-2" transform="translate(956.000000, 234.000000)">
                <g id="Group-5">
                    <path d="M14.5,29 C22.4862306,29 29,22.5111876 29,14.5 C29,6.48881239 22.4862306,0 14.5,0 C6.51376936,0 0,6.51376936 0,14.5 C0,22.4862306 6.51376936,29 14.5,29 Z M14.5,2.0464716 C21.363167,2.0464716 26.9535284,7.63683305 26.9535284,14.5 C26.9535284,21.363167 21.363167,26.9535284 14.5,26.9535284 C7.63683305,26.9535284 2.0464716,21.363167 2.0464716,14.5 C2.0464716,7.63683305 7.63683305,2.0464716 14.5,2.0464716 Z" id="Shape"></path>
                    <path d="M9.45652174,19.5434783 C9.65560641,19.7425629 9.90446224,19.8421053 10.1782037,19.8421053 C10.4519451,19.8421053 10.7008009,19.7425629 10.8998856,19.5434783 L14.8815789,15.5617849 L18.8632723,19.5434783 C19.062357,19.7425629 19.3112128,19.8421053 19.5849542,19.8421053 C19.8586957,19.8421053 20.1075515,19.7425629 20.3066362,19.5434783 C20.7048055,19.1453089 20.7048055,18.4982838 20.3066362,18.1001144 L16.3249428,14.1184211 L20.3066362,10.1367277 C20.7048055,9.73855835 20.7048055,9.09153318 20.3066362,8.69336384 C19.9084668,8.29519451 19.2614416,8.29519451 18.8632723,8.69336384 L14.8815789,12.6750572 L10.8998856,8.69336384 C10.5017162,8.29519451 9.85469108,8.29519451 9.45652174,8.69336384 C9.0583524,9.09153318 9.0583524,9.73855835 9.45652174,10.1367277 L13.4382151,14.1184211 L9.45652174,18.1001144 C9.0583524,18.4982838 9.0583524,19.1453089 9.45652174,19.5434783 Z" id="Shape"></path>
                </g>
            </g>
        </g>
    </g>
</svg>