<?xml version="1.0" encoding="UTF-8"?>
<svg width="37px" height="37px" viewBox="0 0 37 37" version="1.1" xmlns="http://www.w3.org/2000/svg" xmlns:xlink="http://www.w3.org/1999/xlink">
    <!-- Generator: Sketch 50.2 (55047) - http://www.bohemiancoding.com/sketch -->
    <title>flaticon1527761827-svg</title>
    <desc>Created with Sketch.</desc>
    <defs></defs>
    <g id="Page-1" stroke="none" stroke-width="1" fill="none" fill-rule="evenodd">
        <g id="Desktop-HD-Copy-2" transform="translate(-1718.000000, -24.000000)" fill="#FFFFFF" fill-rule="nonzero">
            <g id="flaticon1527761827-svg" transform="translate(1718.000000, 24.000000)">
                <path d="M35.0951852,14.3888889 L31.6336296,14.3888889 C31.0772593,14.3888889 30.6188704,14.0826111 30.4057778,13.5687222 C30.1926852,13.0548333 30.3009444,12.513537 30.6935556,12.1202407 L33.141037,9.67344444 C33.5007593,9.31372222 33.6987778,8.83477778 33.6987778,8.32637037 C33.6987778,7.81727778 33.5007593,7.33901852 33.141037,6.97861111 L30.0213889,3.85896296 C29.3019444,3.13951852 28.0473704,3.13814815 27.3265556,3.85896296 L24.8797593,6.30575926 C24.486463,6.69837037 23.9437963,6.808 23.4312778,6.59422222 C22.9173889,6.38112963 22.6111111,5.92274074 22.6111111,5.36637037 L22.6111111,1.90481481 C22.6111111,0.854425926 21.7566852,0 20.7062963,0 L16.2937037,0 C15.2433148,0 14.3888889,0.854425926 14.3888889,1.90481481 L14.3888889,5.36637037 C14.3888889,5.92274074 14.0826111,6.38112963 13.5687222,6.59422222 C13.0562037,6.80868519 12.513537,6.69837037 12.1202407,6.30575926 L9.67344444,3.85896296 C8.95262963,3.13814815 7.69805556,3.13951852 6.97861111,3.85896296 L3.85896296,6.97861111 C3.49924074,7.33833333 3.30122222,7.81727778 3.30122222,8.32637037 C3.30122222,8.83477778 3.49924074,9.31303704 3.85896296,9.67344444 L6.30644444,12.1202407 C6.69905556,12.513537 6.80662963,13.0548333 6.59422222,13.5687222 C6.38181481,14.0826111 5.92274074,14.3888889 5.36637037,14.3888889 L1.90481481,14.3888889 C0.854425926,14.3888889 0,15.2433148 0,16.2937037 L0,20.7056111 C0,21.7566852 0.854425926,22.6111111 1.90481481,22.6111111 L5.36637037,22.6111111 C5.92274074,22.6111111 6.38112963,22.9173889 6.59422222,23.4312778 C6.80731481,23.9451667 6.69905556,24.486463 6.30644444,24.8797593 L3.85896296,27.3265556 C3.49924074,27.6862778 3.30122222,28.1652222 3.30122222,28.6736296 C3.30122222,29.1827222 3.49924074,29.6609815 3.85896296,30.0213889 L6.97861111,33.141037 C7.69874074,33.8611667 8.95262963,33.862537 9.67344444,33.141037 L12.1202407,30.6935556 C12.513537,30.3009444 13.0541481,30.1926852 13.5687222,30.4057778 C14.0826111,30.6188704 14.3888889,31.0772593 14.3888889,31.6336296 L14.3888889,35.0951852 C14.3888889,36.1455741 15.2433148,37 16.2937037,37 L20.7056111,37 C21.756,37 22.6104259,36.1455741 22.6104259,35.0951852 L22.6104259,31.6336296 C22.6104259,31.0772593 22.9167037,30.6188704 23.4305926,30.4057778 C23.9451667,30.192 24.4857778,30.3009444 24.8790741,30.6935556 L27.3258704,33.141037 C28.0466852,33.8618519 29.3012593,33.8604815 30.0207037,33.141037 L33.1403519,30.0213889 C33.5000741,29.6616667 33.6980926,29.1827222 33.6980926,28.6736296 C33.6980926,28.1652222 33.5000741,27.686963 33.1403519,27.3265556 L30.6928704,24.8797593 C30.3002593,24.486463 30.1926852,23.9451667 30.4050926,23.4312778 C30.6175,22.9173889 31.0772593,22.6111111 31.6336296,22.6111111 L35.0951852,22.6111111 C36.1455741,22.6111111 37,21.7566852 37,20.7062963 L37,16.2937037 C37,15.2433148 36.1455741,14.3888889 35.0951852,14.3888889 Z M35.6296296,20.7062963 C35.6296296,21.0009259 35.3898148,21.2407407 35.0951852,21.2407407 L31.6336296,21.2407407 C30.5208889,21.2407407 29.5650556,21.8793333 29.1395556,22.9071111 C28.7133704,23.9348889 28.9374259,25.0627037 29.7247037,25.8492963 L32.1721852,28.2960926 C32.3811667,28.5050741 32.3811667,28.8442407 32.1721852,29.052537 L29.052537,32.1721852 C28.8442407,32.3804815 28.5050741,32.3818519 28.2960926,32.1721852 L25.8492963,29.7247037 C25.0620185,28.9374259 23.9348889,28.7147407 22.9071111,29.1395556 C21.8793333,29.5650556 21.2407407,30.5208889 21.2407407,31.6336296 L21.2407407,35.0951852 C21.2407407,35.3898148 21.0009259,35.6296296 20.7062963,35.6296296 L16.2937037,35.6296296 C15.9990741,35.6296296 15.7592593,35.3898148 15.7592593,35.0951852 L15.7592593,31.6336296 C15.7592593,30.5208889 15.1206667,29.5650556 14.0928889,29.1395556 C13.7482407,28.9963519 13.3933148,28.926463 13.0425,28.926463 C12.3477222,28.926463 11.6741852,29.200537 11.1507037,29.7240185 L8.70390741,32.1715 C8.49424074,32.3811667 8.15507407,32.3797963 7.94746296,32.1715 L4.82781481,29.0518519 C4.61883333,28.8428704 4.61883333,28.5037037 4.82781481,28.2954074 L7.2752963,25.8486111 C8.06188889,25.0620185 8.28662963,23.9342037 7.86044444,22.9064259 C7.43494444,21.8793333 6.47911111,21.2407407 5.36637037,21.2407407 L1.90481481,21.2407407 C1.61018519,21.2407407 1.37037037,21.0009259 1.37037037,20.7062963 L1.37037037,16.2937037 C1.37037037,15.9990741 1.61018519,15.7592593 1.90481481,15.7592593 L5.36637037,15.7592593 C6.47911111,15.7592593 7.43494444,15.1206667 7.86044444,14.0928889 C8.28662963,13.0651111 8.06257407,11.9372963 7.2752963,11.1507037 L4.82781481,8.70390741 C4.61883333,8.49492593 4.61883333,8.15575926 4.82781481,7.94746296 L7.94746296,4.82781481 C8.15575926,4.61883333 8.49492593,4.61883333 8.70390741,4.82781481 L11.1507037,7.27461111 C11.9366111,8.06051852 13.0637407,8.28594444 14.0928889,7.85975926 C15.1206667,7.43494444 15.7592593,6.47911111 15.7592593,5.36637037 L15.7592593,1.90481481 C15.7592593,1.61018519 15.9990741,1.37037037 16.2937037,1.37037037 L20.7056111,1.37037037 C21.0009259,1.37037037 21.2407407,1.61018519 21.2407407,1.90481481 L21.2407407,5.36637037 C21.2407407,6.47911111 21.8793333,7.43494444 22.9071111,7.86044444 C23.9362593,8.28662963 25.0627037,8.06188889 25.8492963,7.2752963 L28.2960926,4.8285 C28.5057593,4.61951852 28.8449259,4.61951852 29.052537,4.8285 L32.1721852,7.94814815 C32.3811667,8.15712963 32.3811667,8.4962963 32.1721852,8.70459259 L29.7247037,11.1513889 C28.9381111,11.9379815 28.7133704,13.0657963 29.1395556,14.0935741 C29.5650556,15.1213519 30.5208889,15.7599444 31.6336296,15.7599444 L35.0951852,15.7599444 C35.3898148,15.7592593 35.6296296,15.9990741 35.6296296,16.2937037 L35.6296296,20.7062963 Z" id="Shape"></path>
                <path d="M18.5,13 C14.9156111,13 12,15.9156111 12,19.5 C12,23.0843889 14.9156111,26 18.5,26 C22.0843889,26 25,23.0843889 25,19.5 C25,15.9156111 22.0843889,13 18.5,13 Z M18.5,24.5555556 C15.7129444,24.5555556 13.4444444,22.2870556 13.4444444,19.5 C13.4444444,16.7129444 15.7129444,14.4444444 18.5,14.4444444 C21.2870556,14.4444444 23.5555556,16.7129444 23.5555556,19.5 C23.5555556,22.2870556 21.2870556,24.5555556 18.5,24.5555556 Z" id="Shape"></path>
            </g>
        </g>
    </g>
</svg>