<?xml version="1.0" encoding="UTF-8"?>
<svg width="19px" height="20px" viewBox="0 0 19 20" version="1.1" xmlns="http://www.w3.org/2000/svg" xmlns:xlink="http://www.w3.org/1999/xlink">
    <!-- Generator: Sketch 50.2 (55047) - http://www.bohemiancoding.com/sketch -->
    <title>sweden-krona-currency-symbol copy 2</title>
    <desc>Created with Sketch.</desc>
    <defs></defs>
    <g id="Page-1" stroke="none" stroke-width="1" fill="none" fill-rule="evenodd">
        <g id="Desktop-HD-Copy-2" transform="translate(-912.000000, -863.000000)" fill="#000000" fill-rule="nonzero">
            <g id="Group-4" transform="translate(710.000000, 686.000000)">
                <g id="sweden-krona-currency-symbol-copy-2" transform="translate(202.000000, 177.000000)">
                    <path d="M10.4041904,19.3476115 C10.5113032,19.4661125 10.5357157,19.6348285 10.4673104,19.7778801 C10.4006669,19.9128326 10.2602323,19.9998988 10.1096804,19.9998988 L7.91965568,19.9998988 C7.81178781,19.9998988 7.70739306,19.9556064 7.63299796,19.8784618 L2.80204776,14.8174395 L2.64077448,14.820173 L2.64077448,19.6089111 C2.64077448,19.8246529 2.46349467,20 2.24509119,20 L0.395834296,20 C0.17733014,20 0,19.8246529 0,19.6089111 L0,0.391088883 C8.94128889e-17,0.175347126 0.17733014,0 0.395834296,0 L2.24504085,0 C2.46344434,0 2.64072414,0.175347126 2.64072414,0.391088883 L2.64072414,11.4182161 L7.03969953,5.80260287 C7.11349061,5.70804501 7.23011676,5.65135079 7.35212876,5.65135079 L9.64825962,5.65135079 C9.79584178,5.65135079 9.93053819,5.73214005 9.99934611,5.8621318 C10.0710231,5.99723616 10.0561743,6.16296551 9.95857478,6.28460499 L4.63177468,12.9859631 L10.4041904,19.3476115 Z M18.801676,5.62158632 C16.1584855,5.62158632 14.8619067,6.81089946 14.3344464,7.49730449 L14.3344464,5.86663697 C14.3344464,5.75669068 14.2452025,5.66749852 14.1362272,5.66749852 L11.9620077,5.66749852 C11.8524788,5.66749852 11.7638389,5.75669068 11.7638389,5.86663697 L11.7614228,19.8003554 C11.7614228,19.8533037 11.7834695,19.9053409 11.819459,19.9406229 C11.8557506,19.9783347 11.9068909,19.9998988 11.9601957,19.9998988 L14.4509719,19.9998988 C14.5601485,19.9998988 14.6493924,19.9104029 14.6493924,19.8003554 L14.6493924,12.3726025 C14.6493924,11.953774 14.7062206,11.5587874 14.760683,11.2284423 C15.0953603,9.3741363 16.2851283,8.24242854 17.9420552,8.20097089 L18.8012733,8.20097089 C18.8542257,8.20097089 18.9053661,8.17960932 18.9410536,8.14275807 C18.9791572,8.10509691 18.9999959,8.05483141 18.9999959,8.00127562 L18.9999959,5.82128159 C19.0007005,5.71103158 18.9114566,5.62158632 18.801676,5.62158632 Z" id="Shape"></path>
                </g>
            </g>
        </g>
    </g>
</svg>