<?xml version="1.0" encoding="UTF-8"?>
<svg width="21px" height="25px" viewBox="0 0 21 25" version="1.1" xmlns="http://www.w3.org/2000/svg" xmlns:xlink="http://www.w3.org/1999/xlink">
    <!-- Generator: Sketch 50.2 (55047) - http://www.bohemiancoding.com/sketch -->
    <title></title>
    <desc>Created with Sketch.</desc>
    <defs></defs>
    <g id="Page-1" stroke="none" stroke-width="1" fill="none" fill-rule="evenodd">
        <g id="Invalid-credentials" transform="translate(-1042.000000, -581.000000)" fill="#FFFFFF">
            <g id="Password" transform="translate(1042.000000, 581.000000)">
                <path d="M1.15506366,24.3951613 C0.840044721,24.3951613 0.568782484,24.2810411 0.341268808,24.0527974 C0.113755132,23.8245536 0,23.5524209 0,23.2363911 L0,12.0700605 C0,11.7540307 0.113755132,11.481898 0.341268808,11.2536542 C0.568782484,11.0254105 0.840044721,10.9112903 1.15506366,10.9112903 L1.31257234,10.9112903 L2.31012731,10.9112903 L2.31012731,9.27847782 C2.31012731,6.85558264 3.06266126,4.83653361 4.56775174,3.22127016 C6.07284221,1.60600671 7.91042511,0.798387097 10.0805556,0.798387097 C12.250686,0.798387097 14.0882689,1.60600671 15.5933594,3.22127016 C17.0984498,4.83653361 17.8509838,6.85558264 17.8509838,9.27847782 L17.8509838,10.9112903 L19.0060475,10.9112903 C19.3210664,10.9112903 19.5923286,11.0254105 19.8198423,11.2536542 C20.047356,11.481898 20.1611111,11.7540307 20.1611111,12.0700605 L20.1611111,23.2363911 C20.1611111,23.5524209 20.047356,23.8245536 19.8198423,24.0527974 C19.5923286,24.2810411 19.3210664,24.3951613 19.0060475,24.3951613 L1.15506366,24.3951613 Z M5.09278067,9.27847782 L5.09278067,10.9112903 L5.98532986,10.9112903 L14.1232784,10.9112903 L15.0683304,10.9112903 L15.0683304,9.27847782 C15.0683304,7.52275668 14.5783083,6.11820083 13.5982494,5.06476815 L13.5982494,5.01209677 C12.6531926,3.99377851 11.4806397,3.48462702 10.0805556,3.48462702 C8.68047139,3.48462702 7.5079185,3.99377851 6.56286169,5.01209677 L6.56286169,5.06476815 C5.58280278,6.11820083 5.09278067,7.52275668 5.09278067,9.27847782 L5.09278067,9.27847782 Z" id=""></path>
            </g>
        </g>
    </g>
</svg>