<?xml version="1.0" encoding="UTF-8"?>
<svg width="37px" height="36px" viewBox="0 0 37 36" version="1.1" xmlns="http://www.w3.org/2000/svg" xmlns:xlink="http://www.w3.org/1999/xlink">
    <!-- Generator: Sketch 50.2 (55047) - http://www.bohemiancoding.com/sketch -->
    <title>flaticon1527515290-svg</title>
    <desc>Created with Sketch.</desc>
    <defs></defs>
    <g id="Page-1" stroke="none" stroke-width="1" fill="none" fill-rule="evenodd">
        <g id="Desktop-HD-Copy-2" transform="translate(-1859.000000, -23.000000)" fill="#FFFFFF" fill-rule="nonzero">
            <g id="flaticon1527515290-svg" transform="translate(1859.000000, 23.000000)">
                <path d="M26.3079507,27.6322581 C26.5587906,27.8774194 26.8723404,28 27.2172452,28 C27.5621501,28 27.8756999,27.8774194 28.1265398,27.6322581 L36.5923852,19.3580645 C36.6550952,19.2967742 36.7178052,19.2354839 36.7491601,19.1741935 C36.7491601,19.1741935 36.7805151,19.1435484 36.7805151,19.1129032 C36.8118701,19.0516129 36.8432251,18.9903226 36.8745801,18.9596774 C36.8745801,18.9290323 36.8745801,18.8983871 36.9059351,18.8983871 C36.93729,18.8370968 36.93729,18.8064516 36.968645,18.7451613 C37,18.6532258 37,18.5919355 37,18.5 C37,18.4080645 37,18.3467742 36.968645,18.2548387 C36.968645,18.1935484 36.93729,18.1322581 36.9059351,18.1016129 C36.9059351,18.0709677 36.9059351,18.0403226 36.8745801,18.0403226 C36.8432251,17.9790323 36.8118701,17.9177419 36.7805151,17.8564516 C36.7805151,17.8564516 36.7805151,17.8258065 36.7491601,17.8258065 C36.7178052,17.7645161 36.6550952,17.7032258 36.5923852,17.6419355 L28.1265398,9.36774194 C27.62486,8.87741935 26.8096305,8.87741935 26.3079507,9.36774194 C25.806271,9.85806452 25.806271,10.6548387 26.3079507,11.1451613 L32.5789474,17.2741935 L10.2855543,17.2741935 C9.5643897,17.2741935 9,17.8258065 9,18.5306452 C9,19.2354839 9.5643897,19.7870968 10.2855543,19.7870968 L32.5789474,19.7870968 L26.3079507,25.916129 C25.806271,26.3451613 25.806271,27.1419355 26.3079507,27.6322581 Z" id="Shape"></path>
                <path d="M1.31832797,36 L18.681672,36 C19.4212219,36 20,35.4418605 20,34.7286822 L20,22.2325581 C20,21.5193798 19.4212219,20.9612403 18.681672,20.9612403 C17.9421222,20.9612403 17.3633441,21.5193798 17.3633441,22.2325581 L17.3633441,33.4573643 L2.63665595,33.4573643 L2.63665595,2.54263566 L17.3633441,2.54263566 L17.3633441,13.7674419 C17.3633441,14.4806202 17.9421222,15.0387597 18.681672,15.0387597 C19.4212219,15.0387597 20,14.4806202 20,13.7674419 L20,1.27131783 C20,0.558139535 19.4212219,0 18.681672,0 L1.31832797,0 C0.578778135,0 0,0.558139535 0,1.27131783 L0,34.7286822 C0.0321543408,35.4418605 0.610932476,36 1.31832797,36 Z" id="Shape"></path>
            </g>
        </g>
    </g>
</svg>