<?xml version="1.0" encoding="UTF-8"?>
<svg width="27px" height="17px" viewBox="0 0 27 17" version="1.1" xmlns="http://www.w3.org/2000/svg" xmlns:xlink="http://www.w3.org/1999/xlink">
    <!-- Generator: Sketch 50.2 (55047) - http://www.bohemiancoding.com/sketch -->
    <title></title>
    <desc>Created with Sketch.</desc>
    <defs></defs>
    <g id="Page-1" stroke="none" stroke-width="1" fill="none" fill-rule="evenodd">
        <g id="Invalid-credentials" transform="translate(-1039.000000, -502.000000)" fill="#FFFFFF">
            <g id="Email" transform="translate(1039.000000, 502.000000)">
                <path d="M1.20810116,1.66908482 C0.784203897,1.45517006 0.508674809,1.21986735 0.38150563,0.963169643 C0.296726177,0.706471931 0.30732345,0.53534269 0.413297765,0.449776786 C0.519272081,0.364210882 0.763009352,0.321428571 1.14451689,0.321428571 L13.2891128,0.321428571 L25.4337086,0.321428571 C25.8152162,0.321428571 26.0589534,0.364210882 26.1649278,0.449776786 C26.2709021,0.53534269 26.2814994,0.706471931 26.1967199,0.963169643 C26.0695507,1.21986735 25.7940216,1.45517006 25.3701244,1.66908482 C18.3758195,5.5195505 14.7939414,7.48753677 14.6243825,7.57310268 C14.2852647,7.74423449 13.8401792,7.82979911 13.2891128,7.82979911 C12.7380463,7.82979911 12.2929609,7.74423449 11.9538431,7.57310268 C11.7842842,7.48753677 8.20240601,5.5195505 1.20810116,1.66908482 L1.20810116,1.66908482 Z M25.9423828,1.92578125 C26.2391109,1.8829983 26.39807,1.87230272 26.4192648,1.8936942 C26.4404597,1.91508567 26.451057,2.03273703 26.451057,2.24665179 L26.451057,15.4023437 C26.451057,15.7018244 26.2920979,16.0013006 25.9741749,16.3007812 C25.656252,16.6002619 25.3489311,16.75 25.052203,16.75 L13.2891128,16.75 L1.52602252,16.75 C1.18690471,16.75 0.847791984,16.6002619 0.508674173,16.3007812 C0.169556362,16.0013006 0,15.7018244 0,15.4023437 L0,2.24665179 C0,1.86160522 0.190750907,1.75464944 0.572258444,1.92578125 C0.699427623,2.01134715 1.22929125,2.36430121 2.16186523,2.98465402 C3.09443921,3.60500682 4.24954193,4.38578398 5.62720804,5.32700893 C7.00487414,6.26823387 8.11758777,7.0169243 8.9653823,7.57310268 L3.68788775,13.5412946 C3.56071857,13.6696435 3.53952403,13.7765993 3.62430348,13.8621652 C3.66669321,13.9049481 3.73027684,13.9156437 3.8150563,13.8942522 C3.89983575,13.8728608 3.96341938,13.840774 4.00580911,13.7979911 L10.2370677,8.47154018 C11.127252,9.07050151 11.6995047,9.43415114 11.9538431,9.5625 C12.2929609,9.73363181 12.7380463,9.81919643 13.2891128,9.81919643 C13.8401792,9.81919643 14.2852647,9.73363181 14.6243825,9.5625 C14.8787208,9.43415114 15.4509735,9.07050151 16.3411578,8.47154018 L22.5724164,13.7979911 C22.6148061,13.840774 22.6783898,13.8728608 22.7631692,13.8942522 C22.8479487,13.9156437 22.9115323,13.9049481 22.953922,13.8621652 C22.9963118,13.8193822 22.9539227,13.7124265 22.8267535,13.5412946 L17.6128432,7.57310268 C18.4606378,7.0169243 19.5627541,6.26823387 20.9192254,5.32700893 C22.2756966,4.38578398 23.420202,3.60500682 24.352776,2.98465402 C25.28535,2.36430121 25.8152136,2.01134715 25.9423828,1.92578125 L25.9423828,1.92578125 Z" id=""></path>
            </g>
        </g>
    </g>
</svg>