<?xml version="1.0" encoding="UTF-8"?>
<svg width="28px" height="29px" viewBox="0 0 28 29" version="1.1" xmlns="http://www.w3.org/2000/svg" xmlns:xlink="http://www.w3.org/1999/xlink">
    <!-- Generator: Sketch 50.2 (55047) - http://www.bohemiancoding.com/sketch -->
    <title>pdf</title>
    <desc>Created with Sketch.</desc>
    <defs></defs>
    <g id="Page-1" stroke="none" stroke-width="1" fill="none" fill-rule="evenodd">
        <g id="Desktop-HD-Copy-2" transform="translate(-1218.000000, -864.000000)" fill-rule="nonzero">
            <g id="Group-4" transform="translate(710.000000, 686.000000)">
                <g id="pdf" transform="translate(508.000000, 178.000000)">
                    <path d="M24.1709005,29 L0.829155591,29 C0.371230219,29 0,28.6074569 0,28.1233738 L0,13.8766262 C0,13.3925431 0.371230219,13 0.829155591,13 C1.28708096,13 1.65831118,13.3925431 1.65831118,13.8766262 L1.65831118,27.2466882 L23.3416888,27.2466882 L23.3416888,25.2938145 C23.3416888,24.8097313 23.712919,24.4171882 24.1708444,24.4171882 C24.6287698,24.4171882 25,24.8097313 25,25.2938145 L25,28.1233145 C25.0000561,28.6074569 24.6288259,29 24.1709005,29 Z" id="Shape" fill="#B3404A"></path>
                    <g id="Group" transform="translate(1.000000, 1.000000)" fill="#F4B2B0">
                        <polygon id="Shape" points="0.0117276596 9.25657297 0.0117276596 8.98459459 8.57822979 0.0446108108 8.57822979 9.25657297"></polygon>
                        <rect id="Rectangle-path" x="9.7098383" y="11.6593135" width="16.2789872" height="9.29176216"></rect>
                    </g>
                    <g id="Group" fill="#B3404A">
                        <path d="M27.148296,11.3114271 L24.989552,11.3114271 L24.989552,0.817316583 C24.989552,0.365984925 24.618832,0 24.161536,0 L9.523808,0 C9.520056,0 9.516416,0.000497487437 9.51272,0.000552763819 C9.492616,0.000773869347 9.472568,0.00176884422 9.45252,0.00348241206 C9.4458,0.00403517588 9.439024,0.00464321608 9.432304,0.00536180905 C9.409344,0.00790452261 9.386608,0.0111658291 9.363984,0.0155879397 C9.362248,0.015919598 9.360568,0.0160854271 9.358832,0.0164170854 C9.33464,0.0213366834 9.310784,0.0274723618 9.287152,0.0343819095 C9.280936,0.0362060302 9.274832,0.0383065327 9.268672,0.040241206 C9.25064,0.0460452261 9.23272,0.0524020101 9.215024,0.0594221106 C9.208976,0.0618542714 9.202872,0.0641758794 9.19688,0.066718593 C9.151688,0.0858442211 9.10812,0.109060302 9.066624,0.136201005 C9.060912,0.139904523 9.055424,0.143884422 9.049824,0.147643216 C9.03448,0.158201005 9.019528,0.169311558 9.004856,0.180974874 C8.999312,0.185396985 8.993768,0.189653266 8.988392,0.194241206 C8.969408,0.210105528 8.950872,0.226633166 8.933232,0.244321608 L0.261408,8.9511809 C0.242032,8.97063819 0.223832,8.99092462 0.206696,9.01198492 C0.196504,9.02447739 0.187544,9.03757789 0.178192,9.05045729 C0.17192,9.05913568 0.165088,9.06753769 0.159152,9.07643719 C0.148288,9.09268844 0.138768,9.10954774 0.129248,9.12635176 C0.125776,9.13254271 0.1218,9.13845729 0.118496,9.14475879 C0.1092,9.16217085 0.101248,9.1800804 0.093352,9.19798995 C0.090552,9.20429146 0.087304,9.21042714 0.084672,9.21678392 C0.077616,9.23403015 0.071736,9.25149749 0.065856,9.26907538 C0.06328,9.27675879 0.060312,9.28422111 0.058016,9.29190452 C0.053144,9.30815578 0.049504,9.32457286 0.045696,9.34104523 C0.043456,9.35055276 0.040824,9.3598392 0.03892,9.36951256 C0.035952,9.38465829 0.034216,9.39991457 0.032144,9.41511558 C0.030632,9.42622613 0.028672,9.43717085 0.027608,9.44828141 C0.026208,9.46309548 0.025928,9.47785427 0.025368,9.49255779 C0.024976,9.50311558 0.0238,9.51356281 0.0238,9.5241206 L0.0238,9.78900503 C0.0238,10.2403367 0.39452,10.6063216 0.851816,10.6063216 L9.523696,10.6063216 C9.980992,10.6063216 10.351712,10.2403367 10.351712,9.78900503 L10.351712,1.63463317 L23.333408,1.63463317 L23.333408,11.3114271 L10.669008,11.3114271 C10.211712,11.3114271 9.840992,11.6774121 9.840992,12.1287437 L9.840992,21.1777638 C9.840992,21.6290955 10.211712,21.9950804 10.669008,21.9950804 L27.14824,21.9950804 C27.605536,21.9950804 27.976256,21.6290955 27.976256,21.1777638 L27.976256,12.128799 C27.976312,11.6774673 27.605592,11.3114271 27.148296,11.3114271 Z M2.563232,8.97179899 L5.24776,6.27652261 L8.695736,2.81456281 L8.695736,8.97179899 L2.563232,8.97179899 Z M26.32028,20.3604472 L11.49708,20.3604472 L11.49708,12.9461156 L26.32028,12.9461156 L26.32028,20.3604472 Z" id="Shape"></path>
                        <path d="M13.44448,14.4125427 C13.44448,14.2356583 13.60828,14.0800553 13.85748,14.0800553 L15.331512,14.0800553 C16.271472,14.0800553 17.01196,14.5186181 17.01196,15.707005 L17.01196,15.7423819 C17.01196,16.9307688 16.242912,17.3834824 15.26028,17.3834824 L14.555296,17.3834824 L14.555296,18.9113769 C14.555296,19.1377889 14.277592,19.2508844 13.999832,19.2508844 C13.722072,19.2508844 13.444368,19.1376784 13.444368,18.9113769 L13.44448,14.4125427 Z M14.555296,15.0420302 L14.555296,16.534603 L15.26028,16.534603 C15.659056,16.534603 15.901144,16.308191 15.901144,15.8272312 L15.901144,15.7495126 C15.901144,15.2684422 15.659056,15.0421407 15.26028,15.0421407 L14.555296,15.0421407 L14.555296,15.0420302 Z" id="Shape"></path>
                        <path d="M19.240816,14.0800553 C20.223504,14.0800553 20.992608,14.5327688 20.992608,15.7495126 L20.992608,17.5816482 C20.992608,18.7983367 20.22356,19.2510503 19.240816,19.2510503 L17.980424,19.2510503 C17.68844,19.2510503 17.496192,19.0954472 17.496192,18.9186181 L17.496192,14.412598 C17.496192,14.2357136 17.68844,14.0801106 17.980424,14.0801106 L19.240816,14.0801106 L19.240816,14.0800553 Z M18.607064,15.0420302 L18.607064,18.2889095 L19.240816,18.2889095 C19.639592,18.2889095 19.88168,18.0624975 19.88168,17.581593 L19.88168,15.7494573 C19.88168,15.2683869 19.639592,15.0420854 19.240816,15.0420854 L18.607064,15.0420854 L18.607064,15.0420302 Z" id="Shape"></path>
                        <path d="M21.697648,14.4195628 C21.697648,14.1931508 21.939736,14.0800553 22.18188,14.0800553 L24.65288,14.0800553 C24.887856,14.0800553 24.987592,14.3276382 24.987592,14.553995 C24.987592,14.8157286 24.86652,15.0420854 24.65288,15.0420854 L22.80852,15.0420854 L22.80852,16.237603 L23.883776,16.237603 C24.097416,16.237603 24.218488,16.4427337 24.218488,16.6690905 C24.218488,16.8601256 24.118808,17.0864271 23.883776,17.0864271 L22.80852,17.0864271 L22.80852,18.9114322 C22.80852,19.1378442 22.530816,19.2509397 22.253056,19.2509397 C21.975352,19.2509397 21.697592,19.1377337 21.697592,18.9114322 L21.697592,14.4195628 L21.697648,14.4195628 Z" id="Shape"></path>
                    </g>
                </g>
            </g>
        </g>
    </g>
</svg>