<?xml version="1.0" encoding="UTF-8"?>
<svg width="32px" height="32px" viewBox="0 0 32 32" version="1.1" xmlns="http://www.w3.org/2000/svg" xmlns:xlink="http://www.w3.org/1999/xlink">
    <!-- Generator: Sketch 50.2 (55047) - http://www.bohemiancoding.com/sketch -->
    <title>Group 3</title>
    <desc>Created with Sketch.</desc>
    <defs></defs>
    <g id="Page-1" stroke="none" stroke-width="1" fill="none" fill-rule="evenodd">
        <g id="Customer-profile" transform="translate(-1712.000000, -84.000000)">
            <g id="Group-3" transform="translate(1713.000000, 85.000000)">
                <g id="PENCIL-ICON" transform="translate(7.000000, 6.000000)" fill="#000000" fill-rule="nonzero">
                    <path d="M15.9733214,0.798696429 C14.9077857,-0.266232143 13.1746964,-0.266232143 12.1091607,0.798696429 L1.16176786,11.7460893 C1.15660714,11.75125 1.15357143,11.757625 1.14901786,11.7630893 C1.14264286,11.770375 1.13717857,11.7782679 1.13141071,11.7861607 C1.11532143,11.808625 1.102875,11.8326071 1.09346429,11.8587143 C1.09073214,11.8666071 1.08678571,11.8735893 1.08466071,11.8814821 C1.08375,11.8845179 1.08192857,11.8875536 1.08101786,11.8905893 L0.00789285714,16.398625 C0.00303571429,16.4189643 0.00182142857,16.4396071 0.00121428571,16.4599464 C0.00121428571,16.4638929 0,16.4675357 0,16.4714821 C0.000303571429,16.5060893 0.00789285714,16.5397857 0.0197321429,16.5722679 C0.0224642857,16.5798571 0.0255,16.5865357 0.0288392857,16.5938214 C0.0437142857,16.6263036 0.0622321429,16.6575714 0.0883392857,16.6836786 C0.117178571,16.7125179 0.151178571,16.7346786 0.187910714,16.7498571 C0.224642857,16.7650357 0.263803571,16.772625 0.302964286,16.772625 C0.326339286,16.772625 0.350017857,16.7698929 0.373089286,16.7644286 L4.881125,15.6913036 C4.88932143,15.6894821 4.89660714,15.6849286 4.9045,15.6821964 C4.91482143,15.6788571 4.92453571,15.6749107 4.93455357,15.6703571 C4.95641071,15.6603393 4.97675,15.6478929 4.99557143,15.6330179 C5.00285714,15.62725 5.01044643,15.623 5.01742857,15.616625 C5.01985714,15.6141964 5.02289286,15.6129821 5.02532143,15.6105536 L15.9730179,4.66285714 C17.0385536,3.59732143 17.0385536,1.86392857 15.9733214,0.798696429 Z M15.5440714,1.22794643 C16.2993571,1.98353571 16.3637143,3.16989286 15.7413929,4.00167857 L12.7703393,1.030625 C13.6024286,0.408303571 14.7887857,0.472660714 15.5440714,1.22794643 Z M14.0413929,5.73598214 L11.0360357,2.730625 L11.4652857,2.301375 L14.4706429,5.30673214 L14.0413929,5.73598214 Z M1.50601786,15.266 C1.38732143,15.1473036 1.19546429,15.1473036 1.07676786,15.266 L0.846964286,15.4958036 L1.62228571,12.2390893 L2.96467857,12.0900357 L2.79194643,13.6449286 C2.79073214,13.6564643 2.79498214,13.6670893 2.79498214,13.6783214 C2.79498214,13.6898571 2.79073214,13.7001786 2.79194643,13.7117143 C2.79316071,13.7217321 2.79832143,13.7299286 2.80044643,13.7396429 C2.80408929,13.75725 2.80925,13.7733393 2.815625,13.7897321 C2.82351786,13.8094643 2.83292857,13.827375 2.84446429,13.8446786 C2.853875,13.8586429 2.86328571,13.8710893 2.87482143,13.8832321 C2.88939286,13.8987143 2.90517857,13.9117679 2.92248214,13.9239107 C2.93614286,13.9333214 2.94919643,13.942125 2.964375,13.9494107 C2.98441071,13.9588214 3.00535714,13.9642857 3.02721429,13.9694464 C3.03875,13.9721786 3.04816071,13.9785536 3.06,13.9800714 C3.07092857,13.9812857 3.08185714,13.9818929 3.09308929,13.9818929 C3.09308929,13.9818929 3.09339286,13.9818929 3.09339286,13.9818929 C3.09339286,13.9818929 3.09369643,13.9818929 3.09369643,13.9818929 L3.094,13.9818929 C3.094,13.9818929 3.09430357,13.9818929 3.09430357,13.9818929 C3.10523214,13.9818929 3.11646429,13.9812857 3.12739286,13.9800714 L4.68228571,13.8073393 L4.53323214,15.1497321 L1.27621429,15.9250536 L1.50601786,15.69525 C1.62441071,15.5768571 1.62441071,15.3846964 1.50601786,15.266 Z M5.31583929,13.6027321 L12.1091607,6.80910714 C12.2278571,6.69041071 12.2278571,6.49855357 12.1091607,6.37985714 C11.9904643,6.26116071 11.7986071,6.26116071 11.6799107,6.37985714 L4.88658929,13.1734821 L3.43764286,13.334375 L3.59853571,11.8854286 L10.3924643,5.09210714 C10.5111607,4.97341071 10.5111607,4.78155357 10.3924643,4.66285714 C10.2737679,4.54416071 10.0819107,4.54416071 9.96321429,4.66285714 L3.16928571,11.4561786 L2.20301786,11.5636429 L10.6067857,3.159875 L13.6121429,6.16523214 L5.208375,14.569 L5.31583929,13.6027321 Z M14.8998929,4.87748214 L11.8945357,1.872125 L12.3240893,1.44257143 L15.3294464,4.44792857 L14.8998929,4.87748214 Z" id="Shape"></path>
                </g>
                <circle id="Oval-2" stroke="#000000" cx="15" cy="15" r="15"></circle>
            </g>
        </g>
    </g>
</svg>