<?xml version="1.0" encoding="UTF-8"?>
<svg width="27px" height="27px" viewBox="0 0 27 27" version="1.1" xmlns="http://www.w3.org/2000/svg" xmlns:xlink="http://www.w3.org/1999/xlink">
    <!-- Generator: Sketch 50.2 (55047) - http://www.bohemiancoding.com/sketch -->
    <title>problem</title>
    <desc>Created with Sketch.</desc>
    <defs></defs>
    <g id="Page-1" stroke="none" stroke-width="1" fill="none" fill-rule="evenodd">
        <g id="Desktop-HD-Copy-2" transform="translate(-711.000000, -332.000000)" fill="#FFFFFF" fill-rule="nonzero">
            <g id="problem" transform="translate(711.000000, 332.000000)">
                <path d="M13.8536333,19.1463772 C13.7603333,19.053316 13.6316667,19 13.5,19 C13.3683333,19 13.2396667,19.0533493 13.1463333,19.1463772 C13.0533333,19.2394052 13,19.3684439 13,19.50015 C13,19.6318562 13.0533333,19.7605615 13.1463333,19.8535894 C13.2396667,19.9466173 13.3683333,20 13.5,20 C13.6316667,20 13.7603333,19.9466173 13.8536333,19.8535894 C13.9466333,19.7605615 14,19.6315561 14,19.50015 C14,19.3684439 13.9466333,19.2394052 13.8536333,19.1463772 Z" id="Shape"></path>
                <path d="M23.0459238,3.95402344 C20.4961113,1.40426367 17.1059766,0 13.5,0 C9.8939707,0 6.5037832,1.40426367 3.95402344,3.95402344 C1.40421094,6.50388867 0,9.89402344 0,13.5 C0,16.8409863 1.20624609,19.9962422 3.41138672,22.469959 L0.231714844,25.6495781 C-0.077203125,25.9584434 -0.077203125,26.4592617 0.231714844,26.7682324 C0.386173828,26.9227441 0.588568359,26.9998945 0.791068359,26.9998945 C0.993462891,26.9998945 1.19596289,26.9226387 1.35036914,26.7682324 L4.53009375,23.5886133 C7.00381055,25.7937012 10.1590137,27 13.5000527,27 C17.1060293,27 20.4961641,25.5957363 23.0459766,23.0459766 C25.5957363,20.4960586 27,17.1059766 27,13.5 C27,9.89402344 25.5957363,6.50388867 23.0459238,3.95402344 Z M13.5,25.4178633 C6.92840039,25.4178633 1.58203125,20.0715469 1.58203125,13.5 C1.58203125,6.92840039 6.92840039,1.58203125 13.5,1.58203125 C20.0715996,1.58203125 25.4179688,6.92840039 25.4179688,13.5 C25.4179688,20.0715469 20.0715996,25.4178633 13.5,25.4178633 Z" id="Shape"></path>
                <path d="M13.5,7 C13.2238667,7 13,7.33891163 13,7.75694974 L13,14.2430503 C13,14.6610884 13.2238667,15 13.5,15 C13.7761333,15 14,14.6610884 14,14.2430503 L14,7.75694974 C14,7.33891163 13.7761333,7 13.5,7 Z" id="Shape"></path>
            </g>
        </g>
    </g>
</svg>