<?xml version="1.0" encoding="UTF-8"?>
<svg width="25px" height="25px" viewBox="0 0 25 25" version="1.1" xmlns="http://www.w3.org/2000/svg" xmlns:xlink="http://www.w3.org/1999/xlink">
    <!-- Generator: Sketch 50.2 (55047) - http://www.bohemiancoding.com/sketch -->
    <title>coding</title>
    <desc>Created with Sketch.</desc>
    <defs></defs>
    <g id="Page-1" stroke="none" stroke-width="1" fill="none" fill-rule="evenodd">
        <g id="Desktop-HD-Copy-2" transform="translate(-711.000000, -879.000000)" fill="#FFFFFF" fill-rule="nonzero">
            <g id="coding" transform="translate(711.000000, 879.000000)">
                <path d="M12.2963413,6 C7.71667263,6.00524999 4.00544446,9.583868 4,14 L5.03702443,14 C5.04130223,10.1357263 8.288876,7.00415429 12.2962927,7.0000293 L18,7.0000293 L18,6 L12.2963413,6 Z" id="Shape"></path>
                <path d="M19.9629306,15.0000469 C19.9586528,18.8643206 16.7110903,21.9958926 12.7036875,22.0000176 L7,22.0000176 L7,23 L12.7036875,23 C17.2833403,22.99475 20.9945556,19.416132 21,15 L19.9629306,15 L19.9629306,15.0000469 Z" id="Shape"></path>
                <path d="M18.4582677,12.5000293 L17.0927145,12.5000293 C17.0342147,12.3510143 16.9688595,12.2053742 16.8966488,12.0630154 L17.8624537,11.1715032 C18.073906,10.9762696 18.073906,10.6597709 17.8624537,10.4644904 L16.3300846,9.0499959 C16.1185816,8.85480916 15.7757079,8.85480916 15.564154,9.0499959 L14.5978414,9.94197679 C14.4436701,9.87424268 14.2858426,9.81386791 14.1249683,9.76099312 L14.1249683,8.50001367 C14.1249683,8.22387413 13.882438,8 13.5832868,8 L11.4166117,8 C11.1174605,8 10.8749302,8.22387413 10.8749302,8.50001367 L10.8749302,9.76099312 C10.7141066,9.81368042 10.5562283,9.87396143 10.402057,9.94150804 L9.43574439,9.0499959 C9.22424131,8.85480916 8.88136765,8.85480916 8.66981379,9.0499959 L7.13749556,10.4645372 C6.92604326,10.6597709 6.92604326,10.9762696 7.13749556,11.1715501 L8.10380819,12.0630623 C8.03048035,12.2057492 7.96512514,12.3513893 7.90774255,12.5000762 L6.54168148,12.5000762 C6.2425303,12.5000762 6,12.7239503 6,13.0000898 L6,15.0000039 C6,15.2761435 6.2425303,15.5000176 6.54168148,15.5000176 L7.90774255,15.5000176 C7.96461733,15.6485639 8.02987098,15.7942508 8.10330038,15.9365159 L7.13749556,16.8284968 C6.92604326,17.0237304 6.92604326,17.3402291 7.13749556,17.5355096 L8.66986457,18.9500041 C8.88136765,19.1451908 9.22424131,19.1451908 9.43579517,18.9500041 L10.4021078,18.0580232 C10.5561775,18.1259448 10.7140558,18.1863665 10.874981,18.2390069 L10.874981,19.4999863 C10.874981,19.7761259 11.1175113,20 11.4166624,20 L13.5833376,20 C13.8824887,20 14.125019,19.7761259 14.125019,19.4999863 L14.125019,18.2394756 C14.2859442,18.1868352 14.4438225,18.1264136 14.5978922,18.058492 L15.5642048,18.9500041 C15.7757079,19.1451908 16.1185816,19.1451908 16.3301354,18.9500041 L17.8625044,17.5355096 C18.0739567,17.340276 18.0739567,17.0237773 17.8625044,16.8284968 L16.8961918,15.9365159 C16.9697736,15.7942977 17.0352303,15.6485639 17.0922575,15.5000176 L18.4583185,15.5000176 C18.7574697,15.5000176 19,15.2761435 19,15.0000039 L19,12.9999961 C18.9999492,12.7238565 18.7574189,12.5000293 18.4582677,12.5000293 Z M17.916637,14.4995215 L16.6919504,14.4995215 C16.4452053,14.4998027 16.2298429,14.653974 16.1681439,14.87452 C16.0793786,15.1904563 15.9431838,15.4934082 15.7635205,15.7745165 C15.6378881,15.9711095 15.6724192,16.2212804 15.8474615,16.3825298 L16.7141417,17.1825423 L15.9482111,17.8895551 L15.0815309,17.0895426 C14.9068949,16.9279651 14.6358256,16.8960902 14.4228499,17.0120585 C14.1183159,17.1779016 13.790118,17.3036199 13.4478537,17.3855571 C13.2089289,17.44251 13.04191,17.6413061 13.0416053,17.8690708 L13.0416053,19.0000664 L11.9582931,19.0000664 L11.9588517,17.8700552 C11.958547,17.6422905 11.7915282,17.4434944 11.5526033,17.3865415 C11.210339,17.3046043 10.8821411,17.178886 10.5776071,17.0130429 C10.3646314,16.8970746 10.0936129,16.9289495 9.9189261,17.090527 L9.05224589,17.8905395 L8.28631529,17.1835266 L9.1529955,16.3835141 C9.32803778,16.2223116 9.36261968,15.9720939 9.23693657,15.7755009 C9.05727321,15.4943926 8.92107843,15.1914407 8.83231316,14.8755044 C8.77061418,14.6549584 8.55525174,14.5007871 8.30850661,14.5005059 L7.08326139,14.5005059 L7.08326139,13.5005254 L8.30794802,13.5005254 C8.55469315,13.5002441 8.77005559,13.3460729 8.83175456,13.1255269 C8.92051984,12.8095906 9.05671462,12.5066386 9.23637798,12.2255304 C9.3620103,12.0289374 9.32747919,11.7787665 9.1524369,11.6175171 L8.2857567,10.8175046 L9.0516873,10.1104918 L9.91836751,10.9105043 C10.0931559,11.0719411 10.3641744,11.1036285 10.5770485,10.9875196 C10.8816333,10.8220046 11.2098312,10.6966145 11.5520447,10.6150054 C11.7911727,10.5580056 11.9582424,10.3589752 11.9582931,10.1310229 L11.9582931,9.00002734 L13.0410975,9.00002734 L13.0410975,10.1305073 C13.0411483,10.3584595 13.2082179,10.5575369 13.4473459,10.6144898 C13.7895594,10.6960988 14.1177574,10.821489 14.4223421,10.987004 C14.6352163,11.1031129 14.9062347,11.0714255 15.0810231,10.9099886 L15.9477033,10.1099761 L16.7136339,10.816989 L15.8469537,11.6170015 C15.6719114,11.778204 15.6373295,12.0284218 15.7630126,12.2250147 C15.942676,12.506123 16.0788708,12.809075 16.1676361,13.1250112 C16.229335,13.3455572 16.4446975,13.4997285 16.6914426,13.5000098 L17.9166878,13.5000098 L17.9166878,14.4995215 L17.916637,14.4995215 Z" id="Shape"></path>
                <path d="M12,13 C10.8954461,13 10,13.8954461 10,15 C10,16.1045539 10.8954461,17 12,17 C13.1045539,17 14,16.1046007 14,15 C14,13.8953993 13.1045539,13 12,13 Z M12,15.9999766 C11.4477231,15.9999766 11.0000234,15.5522769 11.0000234,15 C11.0000234,14.4477231 11.4477231,14.0000234 12,14.0000234 C12.5522769,14.0000234 12.9999766,14.4477231 12.9999766,15 C12.9999766,15.5522769 12.5522769,15.9999766 12,15.9999766 Z" id="Shape"></path>
                <rect id="Rectangle-path" x="5" y="22" width="1" height="1"></rect>
                <rect id="Rectangle-path" x="3" y="22" width="1" height="1"></rect>
                <rect id="Rectangle-path" x="19" y="6" width="1" height="1"></rect>
                <rect id="Rectangle-path" x="21" y="6" width="1" height="1"></rect>
                <path d="M22.3958934,0 L2.60415548,0 C1.16665267,0.00170898438 0.00170898771,1.16665039 0,2.60415039 L0,22.3958008 C0.00170898771,23.8333496 1.16665267,24.998291 2.60415548,25 L22.3958445,25 C23.8333962,24.998291 24.998291,23.8333496 25,22.3958496 L25,2.60415039 C24.9983398,1.16665039 23.8333962,0.00170898438 22.3958934,0 Z M23.9583964,22.3958496 C23.9583964,23.2587891 23.2588345,23.9583496 22.3958934,23.9583496 L2.60415548,23.9583496 C1.74121434,23.9583496 1.04165243,23.2587891 1.04165243,22.3958496 L1.04165243,2.60415039 C1.04165243,1.74121094 1.74121434,1.04165039 2.60415548,1.04165039 L22.3958445,1.04165039 C23.2587857,1.04165039 23.9583476,1.74121094 23.9583476,2.60415039 L23.9583476,22.3958496 L23.9583964,22.3958496 Z" id="Shape"></path>
                <rect id="Rectangle-path" x="2" y="4" width="21" height="1"></rect>
                <rect id="Rectangle-path" x="3" y="2" width="1" height="1"></rect>
                <rect id="Rectangle-path" x="5" y="2" width="1" height="1"></rect>
                <rect id="Rectangle-path" x="21" y="2" width="1" height="1"></rect>
            </g>
        </g>
    </g>
</svg>