<?xml version="1.0" encoding="UTF-8"?>
<svg width="23px" height="29px" viewBox="0 0 23 29" version="1.1" xmlns="http://www.w3.org/2000/svg" xmlns:xlink="http://www.w3.org/1999/xlink">
    <!-- Generator: Sketch 50.2 (55047) - http://www.bohemiancoding.com/sketch -->
    <title>file</title>
    <desc>Created with Sketch.</desc>
    <defs></defs>
    <g id="Page-1" stroke="none" stroke-width="1" fill="none" fill-rule="evenodd">
        <g id="Desktop-HD-Copy-2" transform="translate(-713.000000, -823.000000)" fill="#FFFFFF" fill-rule="nonzero">
            <g id="file" transform="translate(713.000000, 823.000000)">
                <rect id="Rectangle-path" x="4" y="4" width="6" height="2"></rect>
                <rect id="Rectangle-path" x="4" y="6" width="2" height="2"></rect>
                <rect id="Rectangle-path" x="6" y="6" width="2" height="2"></rect>
                <path d="M22.8226767,5.01037305 L17.9805863,0.177001953 C17.8670994,0.0637207031 17.7131544,0 17.5526838,0 L1.81579097,0 C0.812963662,0 0,0.811490234 0,1.8125 L0,27.1875 C0,28.1885098 0.812963662,29 1.81579097,29 L21.184209,29 C22.1870363,29 23,28.1885098 23,27.1875 L23,5.4375 C23,5.27726367 22.9362203,5.1236543 22.8226767,5.01037305 Z M21.7894916,27.1875 C21.7894916,27.5211699 21.5184848,27.7916855 21.184209,27.7916855 L1.81579097,27.7916855 C1.4815152,27.7916855 1.2105084,27.5211699 1.2105084,27.1875 L1.2105084,1.8125 C1.2105084,1.47883008 1.4815152,1.20831445 1.81579097,1.20831445 L17.3020479,1.20831445 L21.7894916,5.687625 L21.7894916,27.1875 Z" id="Shape"></path>
                <path d="M18.8000113,4.88890625 C18.4686404,4.88890625 18.1999887,4.64015625 18.1999887,4.33333333 L18.1999887,1 L17,1 L17,4.33333333 C17,5.25380208 17.8058988,6 18.8000113,6 L20,6 L20,4.88890625 L18.8000113,4.88890625 Z" id="Shape"></path>
                <path d="M16.4166484,11 L10,11 L10,13 L17,13 L17,11.9999531 C17,11.4476632 16.7388125,11 16.4166484,11 Z" id="Shape"></path>
                <path d="M17.8461164,12.9999887 L10.9230312,12.9999887 L10.9230312,11.1999842 C10.9230312,10.5372451 10.40645,10 9.76920165,10 L5.15382951,10 C4.51658115,10 4,10.5372451 4,11.1999842 L4,23.8000158 C4,24.4627549 4.51658115,25 5.15382951,25 L9.19231393,25 L9.19231393,23.8000158 L5.15382951,23.8000158 L5.15382951,11.1999842 L9.76920165,11.1999842 L9.76920165,13.600009 C9.76920165,13.9313786 10.0275193,14.2000293 10.3461434,14.2000293 L17.8461705,14.2000293 L17.8461705,23.800072 L13.8076861,23.800072 L13.8076861,25 L17.8461705,25 C18.4834189,25 19,24.4627549 19,23.8000158 L19,14.199973 C19,13.5372338 18.4833648,12.9999887 17.8461164,12.9999887 Z" id="Shape"></path>
                <rect id="Rectangle-path" x="8" y="13" width="2" height="2"></rect>
                <path d="M10.8755091,17.2052141 C10.6681239,16.9315953 10.3319259,16.9315953 10.1244909,17.2052141 L8,20.0088874 L8.75101825,21 L10.5000249,18.6918502 L12.2489817,20.9999343 L13,20.0088216 L10.8755091,17.2052141 Z" id="Shape"></path>
                <rect id="Rectangle-path" x="11" y="18" width="2" height="8"></rect>
            </g>
        </g>
    </g>
</svg>