<?xml version="1.0" encoding="UTF-8"?>
<svg width="37px" height="43px" viewBox="0 0 37 43" version="1.1" xmlns="http://www.w3.org/2000/svg" xmlns:xlink="http://www.w3.org/1999/xlink">
    <!-- Generator: Sketch 50.2 (55047) - http://www.bohemiancoding.com/sketch -->
    <title>wallet</title>
    <desc>Created with Sketch.</desc>
    <defs></defs>
    <g id="Page-1" stroke="none" stroke-width="1" fill="none" fill-rule="evenodd">
        <g id="Desktop-HD-Copy-2" transform="translate(-1632.000000, -864.000000)" fill="#FFFFFF" fill-rule="nonzero">
            <g id="wallet" transform="translate(1632.000000, 864.000000)">
                <path d="M35.614221,7.40590652 L22.5934148,0.297465116 C21.3582395,-0.377058522 19.6598735,0.141805815 18.9908202,1.38708022 L11.3739059,15.6558495 L2.11009113,15.6558495 C0.926381472,15.6558495 0,16.5898053 0,17.7831933 L0,21.5190165 L0,40.8726562 C0,42.0660442 0.926381472,43 2.11009113,43 L31.7028326,43 C32.8865423,43 33.8129237,42.0660442 33.8129237,40.8726562 L33.8129237,35.4764671 L34.6878396,35.4764671 C35.1510303,35.4764671 35.5112898,35.1132621 35.5112898,34.6462842 L35.5112898,28.4717986 C35.5112898,28.0048207 35.1510303,27.6416156 34.6878396,27.6416156 L33.8129237,27.6416156 L33.8129237,21.5709029 C33.8129237,20.5850607 33.0924048,19.7029913 32.1660233,19.4954456 L36.6949994,11.0379569 C37.3640527,9.74079604 36.900862,8.1323166 35.614221,7.40590652 Z M26.3504063,4.24083407 L18.2188356,19.4435591 L15.9028819,19.4435591 L24.6005746,3.30687827 L26.3504063,4.24083407 Z M20.4833237,2.16537673 C20.7406518,1.69839882 21.3582395,1.49085309 21.8214302,1.75028526 L23.1080712,2.47669533 L14.050119,19.4435591 L11.2195089,19.4435591 L20.4833237,2.16537673 Z M1.59543476,17.7313068 C1.59543476,17.5756475 1.80129731,17.3162153 2.05862549,17.3162153 L10.4475244,17.3162153 L9.31528036,19.3916727 L2.05862549,19.3916727 C1.90422858,19.3916727 1.74983167,19.3916727 1.59543476,19.4435591 L1.59543476,17.7313068 Z M32.1145577,40.8726562 C32.1145577,41.1320884 31.9086951,41.3396341 31.651367,41.3396341 L2.05862549,41.3396341 C1.80129731,41.3396341 1.59543476,41.1320884 1.59543476,40.8726562 L1.59543476,21.5709029 C1.59543476,21.3114707 1.80129731,21.103925 2.05862549,21.103925 L9.82993673,21.103925 L13.1237375,21.103925 L19.1452171,21.103925 L30.7249855,21.103925 L31.5999013,21.103925 C31.8572295,21.103925 32.0630921,21.3114707 32.0630921,21.5709029 L32.0630921,27.6416156 L28.9236882,27.6416156 C27.534116,27.6416156 26.4533376,28.7831172 26.4533376,30.1321645 L26.4533376,32.9859183 C26.4533376,34.386852 27.5855816,35.4764671 28.9236882,35.4764671 L32.1145577,35.4764671 L32.1145577,40.8726562 Z M33.7614581,29.3019815 L33.8129237,29.3019815 L33.8129237,33.8161012 L33.7614581,33.8161012 L28.9236882,33.8161012 C28.4604974,33.8161012 28.100238,33.4528962 28.100238,32.9859183 L28.100238,30.1321645 C28.100238,29.6651866 28.4604974,29.3019815 28.9236882,29.3019815 L33.7614581,29.3019815 Z M35.2024959,10.2077739 L30.2617948,19.4435591 L20.0715986,19.4435591 L27.7914442,5.07101701 L34.7907708,8.9106131 C35.3054272,9.11815883 35.4598241,9.74079604 35.2024959,10.2077739 Z" id="Shape"></path>
                <path d="M31.9217598,9.41502583 L31.5350361,9.22977435 C30.5682269,8.72033278 29.2630343,9.09083574 28.7312892,10.0170931 L28.2478846,10.8970377 C28.0061823,11.3601664 27.9095014,11.9159208 28.1028632,12.4253624 C28.2478846,12.934804 28.6346083,13.3516198 29.118013,13.5831842 L29.5047367,13.7684356 C29.7947794,13.9073743 30.1331627,14 30.4715459,14 C31.2449934,14 31.9217598,13.5831842 32.3084836,12.9811169 L32.7918882,12.1011723 C33.2752928,11.128602 32.8885691,9.92446741 31.9217598,9.41502583 Z M31.3900147,11.4064793 L30.9066101,12.2864238 C30.7615887,12.5179881 30.4232055,12.6106139 30.1815032,12.4716753 L29.7947794,12.2401109 C29.6980985,12.1937981 29.6014176,12.0548594 29.5530771,11.9622337 C29.5047367,11.8232951 29.5047367,11.6843565 29.6014176,11.5917307 L30.0848222,10.7117862 C30.1815032,10.5728476 30.374865,10.433909 30.5682269,10.433909 C30.6649078,10.433909 30.7132483,10.433909 30.8099292,10.4802219 L31.1966529,10.6654733 C31.3900147,10.8507248 31.4866957,11.128602 31.3900147,11.4064793 Z" id="Shape"></path>
            </g>
        </g>
    </g>
</svg>