<?xml version="1.0" encoding="UTF-8"?>
<svg width="41px" height="38px" viewBox="0 0 41 38" version="1.1" xmlns="http://www.w3.org/2000/svg" xmlns:xlink="http://www.w3.org/1999/xlink">
    <!-- Generator: Sketch 50.2 (55047) - http://www.bohemiancoding.com/sketch -->
    <title>warning</title>
    <desc>Created with Sketch.</desc>
    <defs>
        <polygon id="path-1" points="0 0.0255462185 40.9128184 0.0255462185 40.9128184 37.8937703 0 37.8937703"></polygon>
    </defs>
    <g id="Page-1" stroke="none" stroke-width="1" fill="none" fill-rule="evenodd">
        <g id="Invalid-Credentials-" transform="translate(-1044.000000, -649.000000)">
            <g id="warning" transform="translate(1044.000000, 649.000000)">
                <g id="Group-4">
                    <g id="Group-2" transform="translate(18.923077, 11.083333)" fill="#FF0000">
                        <path d="M2.1025641,15.8333333 C0.958453846,15.8333333 0,16.8041961 0,17.9621849 C0,19.1201737 0.958453846,20.0910364 2.1025641,20.0910364 C3.20399231,20.0910364 4.20512821,19.1201737 4.15466667,18.0132773 C4.20512821,16.7954678 3.25445385,15.8333333 2.1025641,15.8333333 Z" id="Fill-1"></path>
                        <path d="M1.80802455,0.0633327546 C0.693421499,0.367625448 0,1.33502544 0,2.50831 C0.0562043768,3.21597523 0.102924265,3.93226098 0.159128642,4.63981426 C0.318257284,7.33556988 0.477971388,9.97781119 0.637100029,12.6734549 C0.693421499,13.5870047 1.43344579,14.25 2.3889202,14.25 C3.3443946,14.25 4.0936692,13.5424467 4.140272,12.6201644 C4.140272,12.0647575 4.140272,11.5539085 4.19659347,10.9897691 C4.29940064,9.26152544 4.41192648,7.53272199 4.51531912,5.8040305 C4.57117222,4.68448416 4.67456485,3.56493783 4.73076923,2.44539149 C4.73076923,2.04257872 4.67456485,1.68398803 4.51531912,1.32584516 C4.03734773,0.323067504 2.92274469,-0.187781488 1.80802455,0.0633327546 Z" id="Fill-5"></path>
                    </g>
                    <mask id="mask-2" fill="white">
                        <use xlink:href="#path-1"></use>
                    </mask>
                    <g id="Clip-2"></g>
                    <path d="M39.9170744,34.1807339 C41.2378,31.8730588 41.246,29.1225826 39.9338949,26.8237423 L26.7637487,3.72985434 C25.4599487,1.40514846 23.1051821,0.0255462185 20.4642564,0.0255462185 C17.8233308,0.0255462185 15.4686692,1.41345098 14.1651846,3.72112605 L0.977797436,26.8407731 C-0.334307692,29.165479 -0.326107692,31.932986 1.00281795,34.2405546 C2.31492308,36.5224706 4.66138462,37.8937703 7.28548974,37.8937703 L33.5925615,37.8937703 C36.2252872,37.8937703 38.5882538,36.5054398 39.9170744,34.1807339 Z M37.0576923,32.5117143 C36.3258949,33.7890252 35.0307154,34.5470028 33.5843615,34.5470028 L7.27686923,34.5470028 C5.8473359,34.5470028 4.56035641,33.806056 3.8458,32.5546106 C3.12220256,31.2856022 3.11400256,29.7699664 3.83717949,28.4926555 L17.0245667,5.38173669 C17.7395436,4.11272829 19.0174821,3.36347899 20.4642564,3.36347899 C21.9024103,3.36347899 23.1893897,4.12145658 23.9039462,5.39003922 L37.0831333,28.5010644 C37.7894897,29.7442073 37.7808692,31.2431317 37.0576923,32.5117143 Z" id="Fill-3" fill="#FF0303" mask="url(#mask-2)"></path>
                </g>
            </g>
        </g>
    </g>
</svg>