<?xml version="1.0" encoding="UTF-8"?>
<svg width="18px" height="34px" viewBox="0 0 18 34" version="1.1" xmlns="http://www.w3.org/2000/svg" xmlns:xlink="http://www.w3.org/1999/xlink">
    <!-- Generator: Sketch 50.2 (55047) - http://www.bohemiancoding.com/sketch -->
    <title>wrench-tool-in-a-hand</title>
    <desc>Created with Sketch.</desc>
    <defs></defs>
    <g id="Page-1" stroke="none" stroke-width="1" fill="none" fill-rule="evenodd">
        <g id="Desktop-HD-Copy-2" transform="translate(-711.000000, -274.000000)" fill="#FFFFFF" fill-rule="nonzero">
            <g id="Group-2" transform="translate(702.000000, 270.000000)">
                <g id="wrench-tool-in-a-hand" transform="translate(9.000000, 4.000000)">
                    <path d="M17.9994737,28.2581733 L18,18.7047031 C18,18.4493348 17.9009196,18.2094153 17.7207854,18.0287824 C17.5407828,17.8480176 17.301174,17.7485903 17.0463018,17.7485903 L15.2398281,17.7485903 C14.9848243,17.7485903 14.7462682,17.8480176 14.5657393,18.0287824 C14.4257372,18.1701989 14.3365254,18.3472667 14.3032354,18.5388589 L14.3032354,16.060307 C14.3032354,16.0232034 14.3013933,15.9866278 14.2969195,15.9511087 C14.3257358,15.6416033 14.203234,15.3343426 13.9650726,15.1320549 L10.5084431,12.2032414 C12.5586047,10.9534681 13.8491498,8.69410515 13.8491498,6.25912695 C13.8496762,3.61750373 12.3871548,1.23824707 10.031594,0.049609045 C9.88882878,-0.0219574744 9.71908946,-0.01561948 9.5826401,0.0690191527 C9.44671706,0.153261661 9.36355795,0.302204528 9.36355795,0.462767051 L9.3631632,5.79632133 L4.48559189,5.79632133 L4.48559189,0.462899092 C4.48559189,0.302204528 4.40256436,0.153393702 4.26650974,0.0691511942 C4.13006038,-0.01561948 3.96032106,-0.0228817652 3.81755581,0.0497410866 C1.46304771,1.23824707 0,3.61750373 0,6.25912695 C0,8.84199169 1.45054752,11.2278504 3.72044913,12.4192613 L3.72005439,17.7485903 L1.81081595,17.7485903 C1.28501879,17.7495146 0.857512537,18.1782535 0.857512537,18.7047031 L0.857512537,20.3525817 C0.857512537,20.5337427 0.911065951,20.7019636 0.998698811,20.8469452 C0.911065951,20.9915307 0.857512537,21.1596196 0.857512537,21.3407806 L0.857512537,22.988395 C0.857512537,23.1695561 0.910671209,23.3372488 0.998172488,23.4813061 C0.908302753,23.6294568 0.857512537,23.7988661 0.857907279,23.9760658 L0.857512537,25.6231521 C0.857512537,25.8048413 0.911065951,25.972534 0.998698811,26.1175157 C0.911065951,26.2621012 0.857512537,26.4301901 0.857117794,26.6118792 L0.857117794,28.2593616 C0.857117794,28.7858113 1.28462404,29.2150784 1.8104212,29.2160026 L1.81081595,29.2160026 L3.72005439,29.2160026 L3.72005439,30.7843922 C3.72005439,32.5575781 5.15744382,34 6.92391702,34 L6.92483808,34 C8.69131128,34 10.1289639,32.5575781 10.1289639,30.7843922 L10.1289639,28.8351948 C10.1540958,28.8691295 10.1793593,28.9034603 10.2100177,28.9346221 C10.3905466,29.1152549 10.6296291,29.2146822 10.8845012,29.2146822 L13.3498004,29.2146822 C13.8491498,29.2146822 14.2549452,28.8266121 14.2954722,28.3359457 C14.3356043,28.826216 14.7417945,29.2146822 15.2407491,29.2146822 L17.0445913,29.2146822 C17.0455124,29.2146822 17.0473545,29.2146822 17.048144,29.2146822 C17.3020951,29.2146822 17.5417038,29.1148588 17.7217065,28.9336978 C17.9009196,28.7538572 17.9994737,28.5134096 17.9994737,28.2581733 Z M4.37769558,11.712839 C2.27832278,10.724376 0.922118744,8.58332229 0.922118744,6.25873083 C0.922118744,4.23030856 1.91726487,2.38027442 3.56334157,1.26808846 L3.56334157,6.25912695 C3.56334157,6.51475939 3.77005512,6.72180054 4.02440094,6.72180054 L9.82435416,6.72180054 C10.0783052,6.72180054 10.2854135,6.51462735 10.2854135,6.25912695 L10.2854135,1.26808846 C11.9322797,2.38027442 12.9272943,4.23030856 12.9268995,6.25873083 C12.9268995,8.58292617 11.5705639,10.724376 9.47132268,11.7136313 C9.38184769,11.7558846 9.30974137,11.8248103 9.26395123,11.9083926 C9.25697744,11.9099771 9.25079314,11.9139383 9.24395093,11.9157869 C9.20895042,11.9250298 9.17566046,11.9404787 9.14184418,11.9532867 C9.10987003,11.9651704 9.07671165,11.9745454 9.04631647,11.9907865 C8.98302607,12.0231367 8.92315677,12.0619569 8.86868229,12.1083035 L5.29994591,15.1325831 C4.89822951,15.4731183 4.84809719,16.0778686 5.18691794,16.4809914 L6.24548605,17.7394794 C6.24798608,17.7425164 6.2506177,17.7458174 6.25285457,17.7484582 L4.64177839,17.7484582 L4.64217313,12.1324671 C4.64269945,11.9524945 4.53967163,11.7891591 4.37769558,11.712839 Z M1.8104212,25.654446 C1.80068422,25.654446 1.79147356,25.6568227 1.7822629,25.6572188 L1.77976286,25.622888 L1.81134227,23.9446399 L4.19782453,23.9446399 L6.51298996,23.9758017 L6.48220003,25.6540498 L1.8104212,25.654446 Z M1.77976286,22.9879989 L1.81134227,21.3088265 L4.18124534,21.3088265 L6.5140426,21.3399884 L6.48272636,23.0186326 L1.81186859,23.0191607 C1.80213161,23.0191607 1.79252621,23.0215375 1.78278922,23.0219336 L1.77976286,22.9879989 Z M1.81134227,18.6731452 L4.18124534,18.6731452 L6.5140426,18.704307 L6.48272636,20.3829512 L4.18164008,20.3829512 L1.78028919,20.3517894 L1.81134227,18.6731452 Z M1.81134227,28.7529329 L1.77976286,28.2590975 L1.81134227,26.5803213 L4.19835085,26.5803213 L6.5140426,26.6114831 L6.48272636,28.2902594 L4.18164008,28.2902594 C4.18124534,28.2902594 4.18124534,28.2902594 4.18071902,28.2902594 L1.81134227,28.2902594 L1.81134227,28.7529329 Z M6.92391702,33.0741247 C5.66560915,33.0741247 4.64230471,32.0465773 4.64230471,30.783996 L4.64269945,29.2154745 L6.48206845,29.2154745 C7.00826035,29.2154745 7.43563502,28.7862074 7.43563502,28.2589655 L7.43563502,26.6113511 C7.43563502,26.5300135 7.42234536,26.452373 7.40339771,26.3773734 C7.39787131,26.3557186 7.3903712,26.3348561 7.38366058,26.3137294 C7.36523926,26.258536 7.34247577,26.2065117 7.31497537,26.1560718 C7.3085279,26.1437919 7.3057647,26.1299276 7.29839618,26.1176477 C7.3044489,26.1077446 7.30668577,26.096389 7.31208059,26.0860898 C7.34208102,26.0318207 7.36655507,25.9758351 7.38550271,25.9161523 C7.39208176,25.8967422 7.39787131,25.8777282 7.40300297,25.857922 C7.42234536,25.781602 7.43524028,25.7038295 7.43524028,25.6234162 L7.43484554,23.9763299 C7.43484554,23.8955205 7.42155587,23.817748 7.40260823,23.7423523 C7.39708183,23.7210936 7.38997646,23.7007592 7.38326584,23.6791044 C7.36484452,23.6235149 7.34208102,23.5706983 7.31392272,23.5195982 C7.30760684,23.5083747 7.30497522,23.4943783 7.29839618,23.4830227 C7.30536996,23.4721953 7.30760684,23.4591232 7.31352798,23.4473715 C7.34260735,23.3945549 7.36668665,23.3393615 7.38510797,23.2813952 C7.39208176,23.2611929 7.39839764,23.2407264 7.40405561,23.2199959 C7.42247694,23.1449963 7.43524028,23.0681481 7.43484554,22.9890553 L7.43524028,21.3411767 C7.43524028,21.2598391 7.42195061,21.1825948 7.40300297,21.1071991 C7.39747657,21.0855443 7.38997646,21.0646817 7.38326584,21.0435551 C7.36484452,20.9874374 7.34168628,20.9346208 7.31392272,20.8835207 C7.30760684,20.8722972 7.30497522,20.8583008 7.29786985,20.8465491 C7.30484364,20.8357217 7.30760684,20.8217253 7.31392272,20.8105017 C7.3415547,20.7594017 7.36484452,20.706585 7.38273951,20.6504674 C7.38945014,20.6292087 7.39695025,20.6090063 7.40247664,20.5868234 C7.42142429,20.5114276 7.43471396,20.4340513 7.43471396,20.3531098 L7.4351087,18.7054954 C7.4351087,18.6414552 7.42813491,18.5786034 7.41616105,18.5179964 C7.41208205,18.497794 7.4041872,18.478648 7.3986608,18.4584456 C7.38800275,18.4190973 7.37839734,18.3797489 7.3628708,18.3427772 C7.35313382,18.31967 7.34063363,18.2989394 7.32958084,18.2767565 C7.31339639,18.2451985 7.29826459,18.2125843 7.27892221,18.1827429 C7.26457989,18.1610881 7.24773754,18.1415459 7.23142151,18.1213436 C7.21484232,18.0995567 7.20010526,18.0765815 7.18168394,18.0562471 C7.20734221,18.0499091 7.23102677,18.0376292 7.25615872,18.0295747 C7.26365883,18.02733 7.27102735,18.024161 7.27800114,18.0217842 C7.32734397,18.005147 7.37576573,17.9879816 7.42195061,17.9635539 C7.48089884,17.9333164 7.53721546,17.8976652 7.5891899,17.8534313 L9.20618722,16.4833682 L9.20618722,30.7841281 C9.20618722,32.0460492 8.18275121,33.0741247 6.92391702,33.0741247 Z M13.3808535,28.2576451 C13.3808535,28.2758668 13.3673007,28.2893351 13.3498004,28.2893351 L10.8533166,28.2576451 L10.8533166,16.1589421 C10.8533166,16.0229393 10.7934473,15.8934065 10.6898931,15.8055989 L9.96488253,15.1920018 C9.96488253,15.1916057 9.92896095,15.1615002 9.92803988,15.1611041 C9.88488136,15.1249247 9.83751224,15.0985164 9.78764309,15.0804267 C9.76514277,15.0722401 9.74040556,15.0727683 9.71737891,15.0684109 C9.68948376,15.0635254 9.66158862,15.0542825 9.63290399,15.0542825 L9.63237767,15.0542825 C9.59316657,15.0542825 9.55448179,15.0644497 9.51619176,15.0746169 C9.50316525,15.078182 9.48948084,15.0768616 9.47658591,15.081351 C9.42605886,15.0999688 9.37816342,15.1267733 9.33539964,15.1633488 L6.95115426,17.1427836 L5.89574409,15.8401938 L9.49408617,12.8112927 C9.57803477,12.837701 9.63619351,12.8465478 9.72106317,12.8237046 C9.73277387,12.821856 9.78961681,12.818687 9.80159067,12.815518 L13.3783535,15.8688468 C13.3657217,15.9332831 13.3666428,15.9971912 13.3811167,16.0609672 L13.3811167,28.2576451 L13.3808535,28.2576451 Z M17.0773549,28.2585694 C17.0773549,28.2729619 17.06196,28.2893351 17.0480124,28.2893351 L15.2098276,28.2581733 L15.240486,18.6735413 L17.0776181,18.704307 L17.0773549,28.2585694 Z" id="Shape"></path>
                </g>
            </g>
        </g>
    </g>
</svg>